<?xml version="1.0" encoding="UTF-8"?>
<svg id="Layer_1" xmlns="http://www.w3.org/2000/svg" version="1.1" viewBox="0 0 250 229.2393">
  <!-- Generator: Adobe Illustrator 29.1.0, SVG Export Plug-In . SVG Version: 2.1.0 Build 142)  -->
  <defs>
    <style>
      .st0 {
        fill: #26221e;
      }
    </style>
  </defs>
  <path id="Path_01" class="st0" d="M.23298,195.76447c-.25626.25626-.3097.66202-.11744.97165l19.76452,32.03335c.19226.3097.55527.44845.89696.35239.35239-.09613.57658-.41645.57658-.76883v-15.90986c1.95405-2.26369,17.67179-20.68286,25.95769-38.26921,5.18945-11.01948,7.92296-19.94609,9.30037-25.4558v-.01069c-.10675-.63002-.22426-1.25997-.36307-1.88999v-.01069c-.11744-.65133-.25626-1.29197-.4057-1.93268v-.01069c-.89696-4.11092-2.07149-8.15778-3.55572-12.09788-.68339-1.80455-1.42016-3.59841-2.28506-5.31758l-7.80546-2.13556,8.06171,1.66573c2.78689,4.6235,4.6235,9.87695,6.1931,15.08771.16019.50189.3097,1.00371.4592,1.5056.01062.05338.032.09606.04269.1495.48051,1.69773.88627,3.41684,1.28135,5.14663,0,.03206.01069.06413.02131.09613,1.74048,6.49211,4.04692,17.98142,4.15367,33.54958.12813,17.93873-1.7298,33.36808-2.62669,40.77846-.44851,3.70523-.40576,5.64859.10675,5.81941.10675.03206.36301.12813,10.94473.12813,5.2962,0,13.17635-.02138,24.91129-.08544.3417,0,.65133-.22419.75808-.5552.10682-.33101-.01069-.68339-.28826-.89696l-9.36444-6.88718c.42199-2.9113,2.51935-18.57109,1.52027-40.4133h23.99002c.44213,0,.80083-.35871.80083-.80083v-17.41709c0-.44213-.35871-.80083-.80083-.80083h-25.56953c-.31941-2.62096-.67798-5.2934-1.10467-8.00879-5.49902-35.31144-9.02268-48.69067-9.50319-50.42053l3.18196-16.92426,1.3881,5.43502c1.61236,6.29985,6.24654,11.29705,12.40758,13.36854l21.87884,7.34632,8.17915,2.98977c-.41645,1.46292-.13882,3.03252.77946,4.30318l1.44154,1.97536c.97165,1.33472,2.51994,2.08218,4.11092,2.08218.57658,0,1.15322-.09606,1.71911-.29894,6.27854-2.28506,18.54731-7.43176,30.19681-16.305,11.52131-8.77717,14.93821-14.39363,15.95261-16.93495,1.54829,1.60167,2.96839,2.75482,3.77991,3.37415-1.23859,1.63373-4.40993,6.18248-7.55989,13.85974-3.61972,8.83055-7.88014,23.61932-7.55982,43.9498l.02131,1.14253v.032c.03793,2.16078.09437,4.28995.15843,6.38529h-5.11294c-.44213,0-.80083.35871-.80083.80083v17.41501c0,.44213.35871.80083.80083.80083h6.02216c1.48964,22.56203,3.92433,38.43097,4.37806,41.22743l-9.81289,8.71304c-.24557.21357-.33101.56595-.21357.87559.11744.3097.41645.5232.74746.5232h29.56679c.44845,0,.81152-.36301.81152-.80083v-32.49249c0-4.85838-1.36679-9.61001-3.92942-13.7423l-1.75117-2.80826.33101-1.49485h5.71259c.43783,0,.80083-.35239.80083-.80083v-17.41546c0-.43783-.36301-.80083-.80083-.80083h-1.55891l1.12115-5.13601,2.60538.05338c.49114,1.30266,1.0144,2.61607,1.54829,3.90804,13.81699,33.15451,28.03981,57.40378,30.14336,60.91675l-6.26785,9.36444c-.16019.24557-.18157.56595-.03206.82221.13882.25626.40576.42707.70477.42707h7.37832c.10682,0,.21357-.02131.30963-.06406l20.54411-8.61698c.40576-.17082.59795-.62995.43776-1.03571l-12.0232-30.17543c-1.79386-4.51668-4.81569-8.43541-8.73442-11.31843l-2.60538-1.92199-.38438-22.55154.01069-.01062-.53389-31.83047v-.02138c.51251-.3417.99303-.71539,1.40948-1.16391.28826-.32032.59795-.68333.92896-1.0784h14.40432c.43776,0,.80083-.36307.80083-.80083v-17.93873c0-.43776-.36307-.80083-.80083-.80083-.44845,0-.80083.36307-.80083.80083v17.1379h-12.38627c4.05761-5.54177,9.68476-15.55754,14.04131-23.65132,4.23911-7.90159,3.53434-17.68241-1.80455-24.91129l-2.37044-3.20334c-6.02229-8.15784-14.24419-14.2655-23.62994-17.7251-.19219-.29901-.55527-.42714-.88627-.33101-2.23169-.76883-4.52737-1.39879-6.8765-1.85792l-3.20334-.64071-2.00743-6.50273,1.56967,1.60167c.87552.8969,1.85792,1.52692,2.90433,1.87924.53389.17088,1.20659.33107,1.95405.33107,1.64436,0,3.65178-.73677,5.29614-3.54503,1.42016-2.44525,1.75117-4.68756.9824-6.66299-.9824-2.51994-3.49166-3.83329-4.66619-4.32449.32032-3.72654,1.16384-22.6796-13.7423-27.10022-8.7558-2.59469-15.76042.08544-20.10629,2.77626-6.88718,4.29243-12.19401,12.00182-13.49674,19.62577-.69408,4.02548-.032,6.99394,1.94336,8.83048,2.62676,2.41319,6.72699,2.05018,8.48885,1.75117.58727,3.14996,1.66573,6.70568,3.59841,7.45307,2.57332.99309,6.37461.4592,7.95496.17088l2.48788,7.46376c-2.86164,1.02509-5.60584,2.34913-8.18984,3.90804-.05338.03206-.10675.06413-.1495.10682-7.31426,4.47399-13.32585,10.97673-17.12714,18.72881l-6.98325,14.2335-14.92759,15.46141-4.54875-1.00371c-1.88992-.41638-3.87598-.09606-5.5204.87559-3.48097-2.37044-7.8909-2.86164-9.91964-2.9577l.45914-1.44154c.12813-.39507-.07475-.83283-.46983-.98234l-4.773-1.8793c-.2135-2.18893-1.68704-4.06823-3.7906-4.79431l-12.41827-4.26043-5.96885-26.86534c-1.55898-7.00462-7.58127-12.03382-14.71402-12.3542-1.0464-1.30266-5.53108-6.20379-14.07331-6.7163-.24557-.01069-.46983,0-.70471-.01069l1.28135-6.26785h6.47073c.34163,0,.64064-.20288.75808-.5232l1.0144-2.79757c.8649.32032,1.77248.48051,2.68013.48051.24557,0,.49114-.01069.73677-.03206.44845-.04269.76877-.43776.72608-.87559-.04269-.43776-.43783-.75808-.87559-.71539-1.15322.10675-2.31706-.11744-3.36353-.64064-2.96839-1.5056-4.18567-5.09332-2.72282-7.99772,1.1746-2.29568,3.67316-3.53434,6.22517-3.12858l.64064,8.02971c.03206.35239.29901.65133.65139.71539.35232.07475.71539-.10675.8649-.43776l2.03943-4.20705c2.46657-.98234,4.19636-3.22471,4.55943-5.81941l5.74465,1.48423c.82215,11.08355-1.27066,22.0069-3.64116,23.29893-2.07149,1.14253-6.7163-.99303-8.32866-1.91137-.21357-.12813-.46983-.13882-.69408-.05338-.23488.09613-.4057.28832-.46983.53389l-.97165,3.49166c-.11744.42707.12813.87559.55527.99303.07475.02138.14944.02138.21357.02138.35232,0,.67264-.22426.76877-.57664l.70471-2.54132c1.95405.97171,6.38536,2.88301,8.99074,1.45223,3.65178-1.99681,5.25345-14.68195,4.46331-25.00742,1.08915-1.00371,4.63412-4.51668,4.2818-7.93359-.4912-4.6555-15.71773-6.88718-23.8542-6.55618-3.49166.1495-6.10766,1.14253-7.77339,2.96846-1.38816,1.50554-1.7298,3.18196-1.81524,4.04686-1.27066.54458-4.32449,2.221-4.90113,6.07566-1.05709,7.18619,3.84404,15.86717,4.82638,17.51159l-1.43085,6.96194c-6.58817.51251-8.94799,4.93313-9.55656,6.43867-6.85518,1.07847-12.67459,5.77665-15.08771,12.42896-.95034,2.60538-1.61236,5.31752-1.97543,8.04034-1.55891,11.80963-.23488,25.12486-.032,27.05753l-1.00371,2.07149c-.95034,1.9113-.45914,4.20705,1.19591,5.56308l1.70842,1.42016v2.19962l.80083.05338.80083.04275,31.63828,1.86861-32.11879-.40576-1.05709-.01069-.99303-.01069c-1.08915,1.5056-2.60538,4.27111-3.19265,8.47816-.22426,1.62304-.19219,3.77998-.1495,6.51349.12813,8.18984.33101,21.90008-7.00462,37.53237C16.59135,178.9042.39311,195.59359.23298,195.76447ZM111.56061,162.98411v15.81543h-23.26961c-.25039-4.98683-.67173-10.2833-1.30963-15.81543h24.57924ZM185.33235,179.2139c-.05338.20288-.01069.41645.09613.59795l1.92199,3.0859c2.41319,3.87598,3.68385,8.33935,3.68385,12.89872v31.69166h-26.66246l8.5636-7.60258c.20288-.1815.30963-.45914.25626-.73677-.03304-.21474-2.85095-17.12708-4.46689-42.16096.0015-.0303.01453-.05859.01251-.08922l-.06465-1.01356c-.32638-5.14598-.57351-10.34619-.7341-15.45985l-.03233-.91866c-.00169-.04588-.02125-.08531-.03024-.12885-.06491-2.0494-.12057-4.12689-.16202-6.23898l23.22418.43783-5.60584,25.63737ZM182.71628,118.50003c4.58081,6.31054,8.26466,13.26179,10.91273,20.59742-4.60212-6.29992-8.26459-13.26179-10.91273-20.59742ZM196.58677,117.6992v-24.48422l-.01069-.01062v-9.31106h12.71721l1.7298,2.81895c.13882.24557.39507.38438.68339.38438h12.97353l-6.75906,17.89598h-.01069c-4.11092.48051-7.48514,3.36353-8.5956,7.34632l-.70477,2.51994c-.27757.98234-.09606,1.99674.44851,2.84033h-12.47164ZM211.57836,84.57669h14.05194l-.35232.93965c-.03206-.01069-.05344-.02138-.07475-.02138h-13.04829l-.57658-.91827ZM228.23568,179.17115c3.67316,2.7122,6.51349,6.37467,8.20053,10.61372l11.72425,29.44935-19.66846,8.25391h-5.72334l5.71265-8.54223c.17082-.25626.1815-.59795.01069-.8649-.1495-.24557-15.45079-25.53055-30.28225-61.13032-.44845-1.0784-.87559-2.17824-1.29197-3.2674l27.68749.51258.3737,22.1884c.01069.24557.12813.48051.33101.63002l2.9257,2.15687ZM225.90793,119.27949c-.43776.46983-.93965.8649-1.49485,1.18522-.95034.54458-2.03949.82221-3.13927.82221h-.02138l-6.48142-.01069c-.61933.07475-1.19591-.13882-1.61236-.58727-.41638-.44851-.59795-1.05709-.48051-1.65504l.07475-.37376c.01069-.05338.02138-.09606.02138-.1495v-.02131c0-.09613-.02138-.17088-.05338-.24563,0-.02131-.01069-.04269-.01069-.06406-.02138-.05338-.04269-.10675-.08544-.13882-.01069-.02131-.02131-.032-.032-.05338-.01069-.01069-.02138-.02131-.03206-.032-.07475-.07475-.16013-.13882-.25626-.18157-.10675-.05338-.21357-.07469-.33101-.07469h-.01069c-.58727,0-1.14253-.27763-1.49485-.74746-.36307-.48051-.48051-1.08915-.32039-1.66573l.70477-2.52001c.93965-3.35277,3.77991-5.77665,7.2395-6.18241l.4912-.06406c.29901-.032.55527-.22426.66202-.51251l3.80129-10.05852h17.36209c-4.93313,9.07612-10.98742,19.5724-14.50045,23.331ZM188.93076,50.38641c.41645-.13882.64071-.59795.50189-1.0144l-2.66945-7.99765c2.08218-.38438,7.06869-1.51623,9.56725-3.90804.32039-.29901.33101-.81152.03206-1.13184-.30963-.32032-.81152-.33101-1.13184-.02138-2.7762,2.63745-9.56732,3.61978-9.64207,3.63047-.01062,0-.02131.01062-.032.01062-.01069.01069-.02138,0-.03206,0-.05338.02138-4.93313,1.12122-7.73071.04275-.84352-.33101-2.00743-2.62676-2.73351-7.026q0-.01069-.01069-.02138c0-.01062.01069-.02131,0-.032v-.03206c-.79015-4.805-.79015-10.3574-.02131-14.52176,1.00371-5.38158,3.35277-7.16482,4.73025-7.75208-.20288,1.59098-.24563,4.32449,1.30266,6.39598,1.25997,1.66573,3.2674,2.54132,5.9796,2.60538,6.37461.1495,9.67407.08544,11.00879.03206l.88621,6.11835c.05344.39507.39507.68339.79021.68339h2.27431c.37376,0,.70477-.26694.77952-.64071l.44845-2.16756c2.56269.11744,4.75163,1.81524,5.43502,4.29249.41638,1.51623.2135,3.10721-.58733,4.48462-.80083,1.38816-2.10349,2.38119-3.66247,2.81895-1.13184.3097-2.31706.29901-3.42753-.04269-.03206-.01069-.06406,0-.09613-.01069-.032,0-.06406-.01069-.09606-.01069-.07475,0-.13882,0-.21357.02138h-.05338c-.01069.01069-.02138.01069-.02138.01069-.09613.032-.1815.08538-.25626.13882-.01069.01062-.02138.02131-.02138.032-.06406.04269-.11744.10682-.16019.17088,0,.01062,0,.02131-.01062.02131-.01069.03206-.02138.06406-.03206.09613-.02138.05338-.04269.11744-.05338.1815-.01069.03206,0,.06406,0,.10675-.01069.06413,0,.12819.01069.19226.01069.01062,0,.032.01069.05338l3.11789,10.11183c.08544.28832.32032.4912.60864.55527l3.67316.72608c1.71911.3417,3.41684.77946,5.07195,1.29204-18.47262,8.84117-27.97581,6.26785-31.04033,4.86907,2.38113-1.34541,4.89044-2.47725,7.50645-3.36353ZM156.44895,87.1287c.06406-.06406.10675-.12813.1495-.21357l7.03662-14.34026c3.59841-7.35701,9.26831-13.53942,16.16618-17.85329,1.12115.68339,4.14299,2.13556,9.56732,2.13556,5.64852,0,13.89181-1.58029,25.26361-7.25019,9.21493,3.33146,17.27665,9.28969,23.17081,17.27665l2.37044,3.21402c4.97588,6.72699,5.6379,15.82448,1.67642,23.18143-.1815.35239-.3737.71546-.57658,1.06778h-17.62903l3.89742-10.29333v-.05344c.032-.07469.05338-.14944.05338-.22419,0-.03206-.01069-.05338-.02138-.08544,0-.04269-.01069-.07475-.02131-.11744-.02138-.08544-.06406-.17088-.11751-.25626-.01062-.01069-.01062-.04275-.02131-.05338l-10.48559-12.61053c-.27763-.34163-.77952-.38438-1.12115-.10675-.3417.28832-.39507.79015-.10682,1.13184l9.38581,11.28643h-14.38301c-.032,0-.06406.02138-.08544.02138l-.19219-.3097c-.1495-.23488-.40576-.38438-.68339-.38438h-13.9665c-.43783,0-.80083.36307-.80083.80083v9.32169h-12.36489c-1.34541-.98234-9.58863-7.34632-9.97308-15.07703-.41638-8.29659,6.52418-12.85603,6.58824-12.89872.3737-.24563.48051-.73677.24557-1.11053-.24557-.3737-.73677-.48051-1.11047-.24557-.32032.20288-7.78415,5.09332-7.32501,14.32957.22426,4.42062,2.64813,8.32866,5.15739,11.22236-.33101,1.30272-2.47725,6.94056-15.69636,17.0097-.84352.65133-1.69773,1.27066-2.55194,1.8793l-8.80917-12.81334,7.31426-7.5812ZM130.17094,103.42294c.42707-.3737.90759-.67264,1.40948-.8969,1.18522-.53389,2.51994-.68339,3.81198-.40576l4.98651,1.11047c.26694.05344.55527-.032.74746-.23488l6.86581-7.11144,8.63829,12.55708c-10.25065,7.04738-20.40523,11.28643-25.90432,13.28317-1.45216.5232-3.08583.02138-3.99348-1.22791l-1.43079-1.96474c-.54458-.75815-.75815-1.67642-.61933-2.56269l1.11047,1.13184c.54458,1.34541,1.54829,2.41319,2.87233,3.01114.74746.35239,1.54829.52327,2.34913.52327.66202,0,1.32403-.11751,1.96474-.36307,2.15687-.80083,3.58772-2.7762,3.66247-5.05057.01069-.73677-.1495-1.95405-.51251-3.68385.41638.07475.85421.10675,1.31335.10675,1.52692,0,3.28878-.38438,5.30683-1.39879.39507-.20288.55527-.68339.35239-1.07847-.19219-.39507-.68339-.5552-1.07847-.35232-2.58401,1.29197-4.66619,1.40948-6.26785,1.01434-.71539-.16013-1.33472-.42707-1.85792-.74739-1.56967-.90765-2.34913-2.17831-2.41319-2.29575-.12813-.20288-.33101-.3417-.56589-.38438-.23495-.03206-.46983.032-.65139.1815l-2.68007,2.29575c-.24563.22419-.56595.32032-.89696.28826-.3417-.032-.63002-.20288-.8329-.45914-.38438-.50182-.32032-1.22791.16019-1.64436l4.06823-3.5771c.03206-.02131.05338-.05338.08544-.06406ZM128.83622,102.45129l-3.87604,3.40622c-1.11047.98234-1.27066,2.65876-.37376,3.82267.48051.61926,1.16391,1.00371,1.93274,1.07847.77946.08538,1.52692-.1495,2.11418-.66208l2.02874-1.7298c.65139.79021,1.88999,2.00743,3.7266,2.70151.5552,2.47725.66202,3.59841.65133,4.11092-.05338,1.61236-1.07847,3.02183-2.61607,3.59841-1.0144.37376-2.11418.3417-3.09658-.11744-.97165-.44845-1.71911-1.25997-2.0928-2.27437-.03206-.10675-.09613-.20288-.17088-.27763l-1.60167-1.65504-.13882-.13882c-.08538-.08538-.19219-.1495-.29894-.19219l-1.06778-.38438-7.65595-2.80826,3.4809-10.85929c1.49492.04269,5.72334.3417,9.05481,2.38113ZM64.44919,40.78709c6.1931.3737,10.10114,3.29946,11.91638,5.05057l-20.2451-.42707c-.54451-.02138-1.08909,0-1.63367.032.97165-1.79386,3.59841-5.02919,9.96239-4.6555ZM38.55556,101.07388l-1.80455-1.48423c-1.06778-.88627-1.38816-2.38113-.77952-3.63047l1.12122-2.27437c.06406-.13882.09606-.29894.07469-.44845-.02131-.13882-1.65504-14.39363,0-26.89734.3417-2.61607.9824-5.21076,1.88999-7.70933,2.253-6.23585,7.82683-10.60303,14.2655-11.468h.01069c.90765-.11744,1.82592-.17082,2.75489-.14944l22.10303.45914c6.5668.13882,12.15132,4.71956,13.57142,11.12623l6.07566,27.31379c.05338.26694.25626.49114.5232.57658l12.83472,4.40993c1.61236.55527,2.70151,2.05012,2.73351,3.74791l-3.4169,11.52131c-.11744.42714.11751.87559.54458.99303.07475.02138.1495.03206.22426.03206.35239,0,.67271-.22426.76877-.56595l3.21402-10.82722,3.73722,1.46285-4.21774,13.14435-21.10994-7.09006c-5.6379-1.90061-9.89833-6.47073-11.36118-12.24739l-2.28506-8.93737v-.01062l-4.44193-17.39415c-.11751-.42707-.54458-.69402-.9824-.57658-.42707.10675-.68333.54458-.57658.97165l4.39924,17.23396-3.71585,19.80728-36.15496-1.08909ZM86.41334,25.678c-.8969,0-1.61229-.72608-1.61229-1.61229,0-.89696.71539-1.61236,1.61229-1.61236.88627,0,1.60167.71539,1.60167,1.61236,0,.88621-.71539,1.61229-1.60167,1.61229ZM99.06323,36.01858l3.62148,2.25078c.37539.23358.49062.72732.25756,1.10323-.15172.244-.41345.378-.68092.378-.14442,0-.29041-.0391-.42231-.12044l-3.62148-2.25078c-.37539-.23358-.49062-.72732-.25756-1.10323.23358-.37539.7268-.49009,1.10323-.25756ZM98.61484,32.30117c-.10063-.43066.16736-.86131.59802-.96194l4.15224-.96976c.4317-.09958.86079.16788.96194.59802.10063.43066-.16736.86131-.59802.96194l-4.15224.96976c-.061.01408-.12252.02086-.18248.02086-.36392,0-.69291-.24922-.77946-.61887ZM53.02395,57.48716l-.09613.1815c-1.48423,2.76557-4.837,11.45724-3.85466,32.33236.02138.43776-.32032.82215-.76877.83283-.01069.01069-.02138.01069-.03206.01069-.42714,0-.77946-.3417-.80083-.76883-.96103-20.51198,2.11418-29.57741,4.03623-33.1652l.08538-.13882c.19219-.4057.67271-.5552,1.06778-.36301s.55527.68339.36307,1.07847ZM125.75925,89.95234c.06048.38999.39677.67779.79145.67779s.73097-.2878.79145-.67779c.66893-4.30657.96455-4.60219,5.27111-5.27111.38999-.06048.67779-.39677.67779-.79145s-.2878-.73097-.67779-.79145c-4.30657-.66893-4.60219-.96455-5.27111-5.27111-.06048-.38999-.39677-.67779-.79145-.67779s-.73097.2878-.79145.67779c-.66893,4.30657-.96455,4.60219-5.27059,5.27111-.38999.06048-.67779.39677-.67779.79145s.2878.73097.67779.79145c4.30605.66893,4.60167.96455,5.27059,5.27111ZM126.5507,81.456c.48905,1.23305,1.20073,1.94473,2.43378,2.43378-1.23305.48905-1.94473,1.20073-2.43378,2.43378-.48905-1.23305-1.20073-1.94473-2.43378-2.43378,1.23305-.48905,1.94473-1.20073,2.43378-2.43378ZM190.28686,23.59588c0,.88621-.72608,1.61229-1.61236,1.61229s-1.61236-.72608-1.61236-1.61229c0-.88627.72608-1.61236,1.61236-1.61236s1.61236.72608,1.61236,1.61236ZM182.92985,21.6632l.58727,7.85883c.03206.43776-.29894.82215-.73677.85421h-.06406c-.41638,0-.76877-.32032-.80083-.73677l-.58727-7.85883c-.032-.43783.29901-.82221.73677-.8649.44845-.03206.82221.29894.8649.74746ZM179.80126,24.03364c0,.89696-.72608,1.61236-1.61236,1.61236-.8969,0-1.61236-.71539-1.61236-1.61236,0-.88627.71546-1.60167,1.61236-1.60167.88627,0,1.61236.71539,1.61236,1.60167ZM159.01367,20.30065c.23358.37591.11887.86966-.25756,1.10323l-3.62148,2.25078c-.13139.08133-.27737.12044-.42127.12044-.26799,0-.52972-.13399-.68092-.378-.23358-.37591-.11887-.86966.25756-1.10323l3.62148-2.25078c.37539-.23306.86966-.11783,1.10219.25756ZM153.61013,14.3945l4.15224.96924c.43066.10063.6976.53128.5975.96194-.08655.36966-.41606.61887-.77894.61887-.06048,0-.122-.00678-.18352-.02086l-4.15224-.96924c-.43066-.10063-.6976-.53128-.5975-.96194.10115-.43066.5318-.69552.96246-.59802ZM115.29575,129.06859c.39468,0,.73097-.2878.79145-.67779.40511-2.60897.49218-2.69656,3.10062-3.10115.38999-.06048.67779-.39625.67779-.79145s-.2878-.73097-.67779-.79145c-2.60897-.40459-2.69551-.49218-3.10062-3.10115-.06048-.38999-.39677-.67779-.79145-.67779s-.73097.2878-.79145.67779c-.40511,2.60897-.49218,2.69656-3.10115,3.10115-.38999.06048-.67779.39625-.67779.79145s.2878.73097.67779.79145c2.60897.40459,2.69551.49218,3.10115,3.10115.061.38999.39677.67779.79145.67779ZM114.42453,124.49821c.36757-.22315.64807-.50365.87122-.8707.22315.36705.50313.64755.8707.8707-.36757.22315-.64755.50365-.8707.8707-.22315-.36705-.50365-.64755-.87122-.8707ZM94.73215,183.26043h31.86078c.44213,0,.80083.35871.80083.80083v17.41709c0,.44213-.35871.80083-.80083.80083h-31.86078c-.44213,0-.80083-.35871-.80083-.80083v-17.41709c0-.44213.35871-.80083.80083-.80083ZM159.60491,12.7944l-2.25026-3.62148c-.23358-.37591-.11887-.86966.25756-1.10323.37643-.23306.86966-.11679,1.10219.25756l2.25026,3.62148c.23358.37591.11887.86966-.25756,1.10323-.13139.08133-.27737.12044-.42127.12044-.26799,0-.52972-.13399-.68092-.378ZM137.34215,96.35276c.06048.38999.39625.67779.79145.67779s.73097-.2878.79145-.67779c.40459-2.60897.49218-2.69551,3.10115-3.10062.38999-.06048.67779-.39677.67779-.79145s-.2878-.73097-.67779-.79145c-2.60897-.40511-2.69656-.49218-3.10115-3.10115-.06048-.38999-.39625-.67779-.79145-.67779s-.73097.2878-.79145.67779c-.40459,2.60897-.49218,2.69551-3.10115,3.10115-.38999.061-.67779.39677-.67779.79145s.2878.73097.67779.79145c2.60897.40511,2.69656.49218,3.10115,3.10062ZM138.13359,91.58946c.22315.36757.50365.64807.8707.87122-.36705.22315-.64755.50313-.8707.8707-.22315-.36757-.50365-.64755-.8707-.8707.36705-.22315.64755-.50365.8707-.87122Z"/>
</svg>