<svg version="1.1" id="Layer_1" xmlns="http://www.w3.org/2000/svg" xmlns:xlink="http://www.w3.org/1999/xlink" x="0px" y="0px" viewBox="0 0 250 180.81281" style="enable-background:new 0 0 250 180.81281;" xml:space="preserve"><defs><style> .svg-style-0 {  fill: rgb(0, 0, 0); }</style></defs><g id="path-01"><path d="M148.42722,22.91054l2.89638,2.29712l-12.88387,22.87136c-0.69913-0.49937-1.49812-0.59925-2.29713-0.3995
		c-0.59926,0.19975-1.19849,0.49937-1.59801,0.99875l-7.19099-8.08987c0.49937-0.799,0.799-1.89762,0.799-2.89637
		c0-1.29837-0.49937-2.397-1.39825-2.99625c-0.69912-0.49937-1.49812-0.59925-2.397-0.3995
		c-1.79775,0.49937-3.196,2.69662-3.196,4.99375c0,0.799,0.19975,1.598,0.59925,2.19725l-9.48812,15.48062
		c-0.59924-0.3995-1.29838-0.49938-2.09737-0.29963c-0.59924,0.19975-1.19849,0.49937-1.59799,0.99875l-8.3895-10.88637
		c0.3995-0.799,0.59924-1.69787,0.59924-2.59674c0-1.29837-0.49937-2.397-1.29838-2.99625
		c-0.59924-0.49937-1.39825-0.59925-2.19724-0.3995c-1.69787,0.49938-2.99625,2.59675-2.89638,4.69413
		c0,1.09862,0.39951,2.09737,0.99875,2.69662l-12.2846,24.86886c-0.29963,0-0.49937,0-0.799,0
		c-1.598,0.39951-2.89638,2.397-2.7965,4.49438c0,1.29837,0.49937,2.29713,1.29838,2.89637
		c0.3995,0.29963,0.89887,0.49937,1.49812,0.49937c0.19975,0,0.3995,0,0.49937-0.09987
		c1.598-0.39951,2.89637-2.29713,2.7965-4.49438c0-1.19849-0.39951-2.09737-1.09863-2.7965l12.3845-24.86886
		c0.09987,0,0.19975,0,0.29962,0c0.19975,0,0.49937,0,0.69913-0.09988c0.49937-0.09987,0.89887-0.3995,1.29838-0.799
		l8.48936,10.88636c-0.29963,0.69913-0.49937,1.49812-0.49937,2.397c0,1.29837,0.49937,2.397,1.29838,2.99625
		c0.49937,0.39951,0.99875,0.49937,1.598,0.49937c0.19975,0,0.3995,0,0.69912-0.09987
		c1.79775-0.39951,3.09612-2.49688,3.09612-4.794c0-0.69912-0.19975-1.29837-0.3995-1.89762l9.58799-15.58049
		c0.29963,0.19975,0.69912,0.29962,1.09863,0.29962c0.29962,0,0.49937,0,0.799-0.09987
		c0.49937-0.09987,0.99875-0.3995,1.39825-0.799l7.29087,8.08987c-0.39949,0.799-0.69911,1.79775-0.69911,2.69662
		c0,1.29837,0.49937,2.397,1.39824,3.09612c0.49937,0.3995,1.09863,0.59925,1.69788,0.59925c0.19974,0,0.49937,0,0.69911-0.09988
		c1.89761-0.49937,3.39574-2.69662,3.29588-4.99374c0-0.69913-0.19975-1.29837-0.39951-1.89763l13.08363-23.17099l2.89636,2.397
		l1.89761-12.08487L148.42722,22.91054z M82.40989,79.43976c-0.29962,0.09988-0.49937,0-0.69912-0.19975
		c-0.3995-0.29963-0.69912-0.99875-0.69912-1.69787c0-1.49813,0.799-2.69662,1.598-2.89638c0.09987,0,0.09987,0,0.19975,0
		c0.19975,0,0.29963,0.09988,0.49937,0.19975c0.3995,0.29963,0.69912,0.99875,0.69912,1.69787
		C84.00789,77.94164,83.20889,79.24001,82.40989,79.43976z M97.491,47.28003c-0.29963,0.09987-0.49937,0-0.799-0.09988
		c-0.3995-0.29962-0.69912-0.89888-0.69912-1.69787c0-1.39825,0.799-2.89638,1.79775-3.196c0.09988,0,0.19975,0,0.29963,0
		c0.19975,0,0.29963,0.09987,0.49937,0.19975c0.3995,0.29963,0.69912,0.89888,0.69912,1.69788
		C99.28875,45.48228,98.48975,46.9804,97.491,47.28003z M110.37488,63.16014c-0.29963,0.09987-0.59925,0-0.89888-0.19975
		c-0.3995-0.29963-0.69912-0.99875-0.69912-1.79775c0-1.49813,0.799-2.89638,1.89763-3.196c0.09987,0,0.19975,0,0.29962,0
		c0.19975,0,0.39951,0.09987,0.59925,0.19975c0.3995,0.29963,0.69912,0.99875,0.69912,1.79775
		C112.27249,61.46227,111.37363,62.9604,110.37488,63.16014z M124.45724,41.08778c-0.3995,0.09987-0.69912,0-0.99875-0.19975
		c-0.3995-0.29963-0.69912-0.99875-0.69912-1.79775c0-1.49812,0.89888-3.09612,1.9975-3.39575
		c0.09988,0,0.19975-0.09987,0.39951-0.09987c0.19975,0,0.3995,0.09987,0.59924,0.19975
		c0.39951,0.29962,0.69913,0.99875,0.69913,1.79775C126.45474,39.19016,125.55586,40.78815,124.45724,41.08778z M138.33986,51.27502
		c0,1.598-0.99875,3.196-2.09738,3.39575c-0.39949,0.09987-0.799,0-1.09863-0.19975
		c-0.49937-0.3995-0.69911-0.99875-0.69911-1.79775c0-1.598,0.99875-3.09612,2.09738-3.39575c0.09987,0,0.19974,0,0.39949,0
		c0.29962,0,0.49937,0.09987,0.69911,0.19975C138.04024,49.7769,138.33986,50.37615,138.33986,51.27502L138.33986,51.27502z" class="svg-style-0"/><path d="M203.65807,53.17265l-15.28087,2.09737c-0.39949,0.09987-0.69913,0.49937-0.69913,0.89888
		c0.09988,0.3995,0.39949,0.69912,0.79901,0.69912h0.09987l15.28087-2.09737c0.39951-0.09987,0.69913-0.49937,0.69913-0.89888
		C204.45706,53.3724,204.05757,53.07277,203.65807,53.17265z" class="svg-style-0"/><path d="M194.7692,86.33113L194.7692,86.33113l18.47687-1.19849c0.39949,0,0.79901-0.39951,0.69913-0.799
		c0-0.39951-0.39951-0.799-0.79901-0.69912l-18.47685,1.19849c-0.39951,0-0.79901,0.3995-0.69913,0.799
		C193.9702,86.0315,194.36969,86.33113,194.7692,86.33113z" class="svg-style-0"/><path d="M236.51692,112.19875L236.51692,112.19875c-13.28337-4.69412-12.58424-8.3895-12.18474-10.48687
		c0.19975-0.89888,0.59926-1.79775,1.1985-2.59675c1.9975,0.59925,4.29463,1.89762,6.69162,3.69537
		c0.09988,0.09988,0.19974,0.09988,0.39949,0.09988l0,0l7.49062,0.99875h0.09988c0.29964,0,0.49937-0.19975,0.69913-0.3995
		l4.09488-7.19099c0.19974-0.29963,0.09988-0.69912-0.09988-0.89888c-3.39574-3.79525-7.98999-5.79275-11.88512-6.7915v-8.18974
		c0-0.3995-0.29962-0.69912-0.59926-0.799l-7.19098-1.49812l0,0c-0.09988,0-0.19975,0-0.29964,0l-2.79649,0.29963V50.9754
		c0-0.19975-0.09988-0.3995-0.19975-0.49938l-11.28587-11.68537c-0.19974-0.19975-0.39949-0.29962-0.69911-0.19975
		l-30.56175,5.09362V39.3899l56.82884-9.18849c0.19975,0,0.39949-0.09987,0.49937-0.29962
		c0.19975-0.19975,4.09488-4.89387,3.196-11.186c-0.89886-6.49187-6.89137-12.58424-16.47937-11.68537l0,0l0,0l0,0l0,0
		c-0.39949,0-0.799,0.09987-1.1985,0.09987c-5.39323-7.39075-15.97998-6.7915-16.37947-6.69162l0,0
		c-0.69913,0-1.39825,0.09987-1.99751,0.19975c-6.59175,0.89887-13.78273,5.49312-15.28087,13.78274
		c-3.995-0.69912-7.09113,0.799-9.08862,2.7965V7.1303c0-2.397-1.59801-4.59425-3.89511-5.49312l-7.29086-1.598l0,0
		c-0.69911-0.09987-1.39824,0-2.09738,0.19975L73.22139,26.40617c0-5.29337-2.09737-9.78775-5.89262-12.08487
		c-0.19975-0.19975-0.49937-0.29963-0.799-0.3995c-0.19975-0.09988-0.39951-0.19975-0.59925-0.29963l0,0l0,0l-2.397-0.99875l0,0
		c-0.29963-0.19975-0.69913-0.29963-0.99875-0.3995l0,0l0,0l0,0c-6.49187-2.19725-14.58174,2.09737-18.97624,9.88762
		c-4.89388,8.68912-3.39575,18.77649,3.09612,22.47186c0.09988,0,0.19975,0.09987,0.19975,0.09987s0,0,0.09987,0l0,0l0,0
		c0.3995,0.19975,0.89888,0.3995,1.29837,0.59925l2.19725,0.99875l0,0c1.49812,0.59925,3.09612,0.99875,4.69412,0.99875
		c3.196,0,6.59174-1.1985,9.58799-3.5955v54.2321l-2.29712-0.799c-0.09988,0-0.29963-0.09988-0.3995,0l-8.18975,1.79775
		c-2.29712-4.19475-4.79399-8.08987-7.5905-11.68536c18.57674-10.18724,8.68912-34.35698,8.58924-34.65661
		c-0.09987-0.19975-0.29963-0.3995-0.59925-0.49937c-0.29963,0-0.49937,0-0.69913,0.19975
		C40.0629,65.35739,40.36253,76.24377,42.16028,82.23626c-1.89763-2.09737-3.89513-4.09487-5.9925-5.99249l1.9975-3.09612l0,0
		l0.09987-0.19975l0,0c4.59425-8.48937,1.09863-19.67537-7.98999-24.96874c-4.49437-2.59675-9.588-3.39575-14.48187-2.397
		c-4.89387,1.09862-8.88887,3.89512-11.28587,7.98999l0,0L2.70968,56.1689l0,0c-0.19975,0.19975-0.29962,0.49937-0.49937,0.69912
		c-4.89387,8.48937-1.39825,19.77524,7.89012,25.16849c3.29587,1.89762,6.89137,2.7965,10.28712,2.7965
		c4.794,0,9.38824-1.69787,12.68412-4.99374c1.29837,1.09862,4.99375,4.49437,9.1885,9.98749
		c-2.397-1.49812-5.79275-2.89637-9.88762-3.19599c-7.79024-0.59925-15.88011,2.99625-24.16973,10.38699
		c0.09989,0.29961,0.00001,0.49936,0.00001,0.79899c0,0.19975,0.09988,0.49937,0.29963,0.59925
		c0.09987,0.09987,8.98874,6.49187,19.37574,6.49187c6.09237,0,12.78399-2.19724,18.47687-9.28837
		c0.89888,1.39825,1.69787,2.7965,2.49687,4.29462l-1.598,0.29963c-0.3995,0.09987-0.59925,0.3995-0.59925,0.799v53.23335
		c0,0.39951,0.29963,0.69913,0.69913,0.79901l14.68162,1.79774h0.09987h0.09987l9.28837-1.49812
		c0.39951-0.09988,0.69912-0.39949,0.69912-0.799v-44.84386c0.99875,0.29963,1.99751,0.49937,3.09612,0.49937
		c0.09988,0,0.09988,0,0.19975,0v47.24084c0,0.39949,0.29963,0.69913,0.69913,0.79901l20.07486,2.49687h0.09988h0.09987
		l12.784-2.09738c0.3995-0.09988,0.69912-0.39949,0.69912-0.79901v-50.93622l3.79525-0.3995v55.13097
		c0,0.39949,0.29963,0.69911,0.69913,0.799l21.57299,2.69662c0.39949,1.39824,1.09862,2.59676,2.09737,3.39574l0.49937-0.59924
		l-0.49937,0.59924l3.89513,2.99625c0.09988,0.09988,0.29962,0.29964,0.39949,0.39951
		c0.09988,0.09987,0.29962,0.19974,0.39949,0.29962l0.09988,0.09988l0,0c0.99875,0.59926,2.09738,0.89886,3.39574,0.89886
		c2.29713,0,5.09363-0.89886,8.08987-2.79649v5.49312c0,2.69662,12.88387,4.89386,23.47061,4.89386
		c10.58676,0,23.47061-2.29712,23.47061-4.89386v-32.85887c0-0.89886-0.59924-1.79774-7.29086-2.59676
		c-4.29463-0.49937-9.9875-0.799-16.07988-0.799c-0.99875,0-1.89761,0-2.79649,0c0.09988-2.69662-0.49937-4.79401-1.79776-6.19225
		c0,0-0.09988,0-0.09988-0.09988l0,0l0,0c-0.19974-0.19974-0.39949-0.39949-0.59924-0.59926
		c-0.19975-0.19974-0.39951-0.29962-0.59926-0.39949l-3.69537-2.89636l0,0c-2.49687-1.89763-6.39198-1.598-11.08612,0.89886
		c-0.29964,0.09988-0.49937,0.29964-0.79901,0.49937v-28.36448l5.49313-0.49937v19.67536c0,0.39951,0.29962,0.799,0.799,0.799
		l52.63409,0.49937c0.59926,0.29963,1.19849,0.59925,1.89761,0.89888c1.29839,0.59924,2.89636,1.29838,4.79401,2.19724
		c4.19473,1.99751,6.39198,3.39575,6.99124,5.79274c0.19975,0.89886,0.29962,2.49687-0.09988,3.89513
		c-5.69287,1.39824-8.68912-3.5955-8.88885-3.79526c-0.19975-0.29962-0.49937-0.39949-0.79901-0.39949l-8.789,1.79774l0,0
		c-0.19974,0.09988-0.49937,0.19975-0.59924,0.39949l-4.3945,9.58801c-0.09988,0.29962-0.09988,0.69911,0.19975,0.89886
		c0.09988,0.09988,3.995,3.79524,10.08737,5.79276v8.58925c0,0.39949,0.29962,0.69911,0.59926,0.799l8.48936,1.59801h0.09988
		c0.09988,0,0.09988,0,0.19975,0l0,0l8.08987-1.59801c0.39949-0.09988,0.59926-0.39949,0.59926-0.799v-7.69037
		c2.59674-0.49937,5.29337-1.39824,7.49062-2.79651C246.80399,144.75795,250,138.86533,250,131.87407
		C249.90016,122.88536,244.50693,115.09511,236.51692,112.19875z M179.28859,19.81442c1.59801-2.49687,4.89386-4.69412,9.588-3.5955
		c0.19974,0.09988,0.39949,0,0.59926-0.09987c0.19974-0.09987,0.29962-0.29963,0.29962-0.59925
		c0.99875-8.08987,7.79025-12.48437,13.9825-13.28337c6.59175-0.89887,12.28462,1.9975,14.38197,7.191
		c0.09988,0.19975,0.29964,0.3995,0.49939,0.49937c0.19974,0.09988,0.49937,0,0.69911-0.09987
		c0.69913-0.49938,1.49812-0.799,2.49687-0.99875c0.49937-0.09988,0.99875-0.19975,1.49812-0.19975
		c3.29588-0.09988,7.69037,1.39825,9.9875,5.09362c1.49812,2.397,2.49687,6.49187-0.79901,12.48437l-53.23334,8.88887V19.81442z
		 M46.25516,85.33238c0.19975-1.69787,0.49938-3.49562,0.89888-5.39325l6.392-1.89762
		C52.04791,80.73814,49.65091,83.23501,46.25516,85.33238z M54.4449,76.04401l-6.99125,2.09737
		c0.59925-2.7965,1.29837-5.69286,2.09737-8.3895l6.49187-1.9975C56.04291,70.45101,55.54353,73.24751,54.4449,76.04401z
		 M54.14528,55.07027c0.799,2.29712,1.79774,6.392,1.9975,10.88637l-5.9925,1.79775
		C51.64841,62.46102,53.24641,57.66702,54.14528,55.07027z M52.24765,55.86927c-0.89887,2.69662-2.29712,6.89137-3.59549,11.48562
		l-2.49688-3.19601C47.65341,61.56214,49.55104,58.76564,52.24765,55.86927z M45.35629,65.65701l2.69662,3.5955
		c-0.799,2.7965-1.49812,5.69287-2.09737,8.48937l-3.196-2.89638C42.95929,72.14889,43.75829,69.05276,45.35629,65.65701z
		 M45.55604,79.53963c-0.29963,1.69787-0.59925,3.29588-0.89888,4.89388c-0.799-1.598-1.79775-4.09487-1.89762-7.49062
		L45.55604,79.53963z M11.09918,80.83801C2.60981,75.94414-0.68606,65.55714,3.80831,57.86677
		c2.19725-3.79525,5.79275-6.39199,10.28712-7.29087c1.29837-0.29963,2.49687-0.3995,3.79525-0.3995
		c3.29587,0,6.59175,0.89888,9.48812,2.59674c8.48937,4.89388,11.78524,15.28087,7.39075,22.97124
		C30.27517,83.43475,19.68843,85.73188,11.09918,80.83801z M43.95803,92.92287c-2.09737-0.29963-4.29462-0.49937-6.39199-0.59924
		l-3.09612-3.69537C38.86441,89.32738,42.06041,91.42475,43.95803,92.92287z M32.17279,88.32863l3.29587,3.89513
		c-2.49687,0-4.99375,0.09988-7.39075,0.3995l-3.196-3.49562C27.27892,88.52837,29.7758,88.22876,32.17279,88.32863z
		 M23.18405,89.72688l2.89637,3.19599c-5.593,0.69912-10.38699,1.89763-13.48312,2.7965
		C16.1928,92.92287,19.68843,90.92538,23.18405,89.72688z M10.69968,98.01649c2.59675-0.89887,8.28962-2.59675,15.38074-3.49562
		l-5.39325,7.89012C16.1928,101.2125,12.59731,99.11512,10.69968,98.01649z M22.28518,102.81049l5.89262-8.58924
		c2.397-0.29963,4.99375-0.3995,7.59049-0.3995L30.07542,103.21C27.3788,103.50962,24.78205,103.30987,22.28518,102.81049z
		 M32.17279,102.91037l5.39325-9.08862c2.49687,0.09987,4.99374,0.3995,7.49062,0.799
		C40.96179,99.61449,36.56729,102.0115,32.17279,102.91037z M47.15403,93.72188L47.15403,93.72188
		c-5.49312-8.48937-10.88637-13.38324-12.68412-14.88137c0.29963-0.3995,0.69912-0.799,0.99875-1.29837
		c6.392,5.69286,11.98499,12.98374,16.77899,21.57298l-1.69787,0.3995C49.45116,97.51712,48.35254,95.6195,47.15403,93.72188z
		 M61.43615,155.14497l-13.08362-1.59801v-51.8351l13.08361-2.89638C61.43615,98.81549,61.43615,155.14497,61.43615,155.14497z
		 M224.13243,79.73939v7.29087c-1.09863-0.19975-2.29713-0.29962-3.49562-0.29962l0,0l0,0l0,0
		c-1.09863,0-2.19725,0.09987-3.39575,0.3995v-6.59174L224.13243,79.73939z M210.74919,41.18766l8.88887,9.1885l-9.18849,1.39825
		L210.74919,41.18766z M171.89783,100.71313h0.29964c3.995-0.39951,7.09113-3.79525,7.09113-7.89012v-5.79276l8.38948-0.49937
		v24.56924l-15.78024,0.19975V100.71313z M66.52978,23.31004c-0.39951-3.39575-1.9975-6.09237-4.49437-7.49062
		s-5.59299-1.39825-8.68912,0.09988c-2.99625,1.39825-5.69287,4.09487-7.5905,7.39075
		c-3.89512,6.99125-2.89637,14.88136,2.19725,17.77774c1.1985,0.69913,2.59675,0.99875,3.995,0.99875
		c4.3945,0,9.28837-3.196,12.28462-8.48937c0.19975-0.29963,0.29963-0.59925,0.49937-0.89888v3.79525
		c-4.19475,5.9925-10.68662,8.98875-15.88012,7.191l-1.29837-0.49937c-0.09987,0-0.09987-0.09988-0.19975-0.09988
		c-5.79275-3.196-6.89137-12.28461-2.49688-20.27461c3.995-7.191,11.38575-11.18599,17.07861-9.18849l0.89888,0.3995
		c0.19975,0.09988,0.29963,0.19975,0.49937,0.19975c4.09487,2.29712,5.9925,7.49062,4.89388,13.48312l-0.09988,0.19975
		c-0.799,0.19975-1.49812,0.59925-1.9975,1.1985C66.52978,27.10529,66.72952,25.20767,66.52978,23.31004z M62.8344,32.89804
		c-3.49562,6.19225-9.78774,9.28837-14.08237,6.89137s-4.99375-9.38824-1.598-15.58049
		c1.69788-3.09612,4.09487-5.39325,6.89137-6.69162c2.59675-1.1985,5.1935-1.29837,7.29087-0.19975
		c2.09737,1.09863,3.39575,3.39575,3.69538,6.29212C65.33127,26.50604,64.53228,29.80191,62.8344,32.89804z M75.51852,104.70812
		l-3.29588,0.29963v-2.19725l3.29588-0.3995V104.70812z M95.59338,158.94022l-18.47687-2.397V85.23251l18.47687-3.995V158.94022z
		 M113.77061,100.813l-3.79525,0.39951v-2.49687l3.79525-0.39951V100.813z M135.7431,163.43459l-20.37449-2.59676V70.85052
		l23.57049-5.1935v84.59406C136.44223,155.24483,135.34361,159.93896,135.7431,163.43459z M199.96269,175.51945
		c-1.09863,1.09862-10.08737,3.49562-21.8726,3.49562s-20.77399-2.397-21.8726-3.49562v-4.59425
		c3.79524,1.89761,13.58299,3.29587,21.8726,3.29587s18.07738-1.39824,21.8726-3.29587V175.51945z M199.96269,169.22733
		c-0.99875,1.09863-10.08737,3.49562-21.8726,3.49562s-20.87386-2.39699-21.8726-3.49562v-4.89386
		c3.89511,1.79774,14.28212,2.79649,21.8726,2.79649s17.97749-0.99875,21.8726-2.79649V169.22733z M199.96269,162.53571
		c-1.09863,1.09863-10.18724,2.99625-21.8726,2.99625s-20.77399-1.89761-21.8726-2.99625v-4.99374
		c4.59425,1.79774,18.07736,2.19725,21.8726,2.19725s17.27837-0.39951,21.8726-2.19725V162.53571z M199.96269,155.94397
		c-1.39824,0.799-10.28712,2.19725-21.8726,2.19725s-20.47437-1.39825-21.8726-2.19725v-5.09363
		c1.09863,0.29962,2.79649,0.49937,5.79276,0.799c4.69411,0.39951,10.38698,0.69913,16.07986,0.69913
		c5.69287,0,11.48563-0.19975,16.07986-0.69913c2.99626-0.29962,4.69412-0.59924,5.79276-0.799v5.09363H199.96269z
		 M199.96269,149.25233c-1.69788,0.59926-10.48686,1.59801-21.8726,1.59801s-20.17473-0.99875-21.8726-1.59801v-4.89386
		c1.09863,0.39949,2.79649,0.69911,5.79276,1.09863c4.29462,0.49937,9.98749,0.799,16.07986,0.799s11.78525-0.29962,16.07986-0.799
		c2.89638-0.29964,4.69412-0.69913,5.79276-1.09863v4.89386H199.96269z M178.09009,141.06259
		c11.68536,0,19.47562,0.99875,21.47311,1.79776c-2.09738,0.799-9.78775,1.79774-21.47311,1.79774
		s-19.47562-0.99875-21.47311-1.79774C158.61447,141.96147,166.30484,141.06259,178.09009,141.06259z M158.1151,131.57448
		c3.995-2.19725,7.39075-2.59676,9.38824-1.09863l1.09863,0.89886c-5.593,0.19975-13.38324,5.49312-19.87511,13.88261
		c-6.59175,8.48936-9.68787,17.37823-8.3895,22.77148l-1.09863-0.799l0,0c-4.19475-3.196-1.29837-14.38199,6.392-24.26962
		C149.42596,137.86659,153.82048,133.8716,158.1151,131.57448z M156.01772,69.45226l-15.97998-5.49312
		c-0.09988,0-0.29964-0.09988-0.39951,0l-25.16847,5.49312c-0.39951,0.09988-0.59925,0.39951-0.59925,0.799v26.46686
		l-3.79525,0.39951V84.63326c0-0.29963-0.19975-0.59925-0.49937-0.69913l-12.784-4.39449c-0.09988,0-0.29963-0.09988-0.3995,0
		l-20.07487,4.39449c-0.3995,0.09988-0.59924,0.39951-0.59924,0.799v16.17974l-3.29588,0.3995v-0.3995
		c0-0.29963-0.19975-0.59925-0.49937-0.69912l-1.39825-0.49937V33.89679c0-0.59925,0.3995-1.1985,1.09863-1.39825l0.3995-0.09988
		l0,0l90.38682-24.56923c0.99875-0.29962,1.9975-0.09987,2.79649,0.59925c0.79901,0.59925,1.29839,1.598,1.29839,2.59675v77.10345
		c0,1.69787-1.29839,2.99625-2.89638,3.19599l-6.99124,0.799v-21.8726C156.51709,69.85177,156.31735,69.55214,156.01772,69.45226z
		 M156.51709,96.4185v-2.89638l7.19099-0.799c2.49687-0.29963,4.29463-2.29713,4.29463-4.794V10.92555
		c0-1.49812-0.69913-2.89637-1.89761-3.79525c-1.1985-0.89887-2.69662-1.1985-4.19475-0.799L71.52352,30.80066l0,0l-0.49937,0.19975
		c-1.29838,0.3995-2.19724,1.598-2.19724,2.89638V99.215l-2.49688-0.89888V32.29879c0-1.39825,0.89888-2.59675,2.19725-2.99625
		l0.69912-0.19975l0,0l97.37808-27.46561c0.49937-0.09987,1.09862-0.19975,1.59799-0.09987l0.49937,0.09987
		c1.59801,0.49937,2.59676,1.89762,2.59676,3.49562v86.29195c0,0.89888-0.29962,1.69787-0.89886,2.397
		c0,0.09987-0.09988,0.09987-0.19974,0.19975c-0.59926,0.59925-1.39825,0.99875-2.29713,1.09863L156.51709,96.4185z
		 M163.60822,120.58823v-19.07611l6.7915-0.69913v11.28587c0,0.19975,0.09988,0.3995,0.19975,0.59925
		c0.09988,0.09987,0.29962,0.19975,0.59926,0.19975l0,0l17.37822-0.29963c0.39951,0,0.79901-0.3995,0.79901-0.799V85.73188
		c0-0.19975-0.09988-0.3995-0.19975-0.59924c-0.19974-0.09988-0.39949-0.19975-0.59926-0.19975l-9.08862,0.49937v-4.49438
		l33.95749-2.7965c0.39949,0,0.799-0.3995,0.69911-0.89887c0-0.39951-0.39949-0.69913-0.89886-0.69913l-33.85762,2.79651v-4.79401
		l34.05737-3.5955c0.39949,0,0.69911-0.3995,0.69911-0.89887c0-0.3995-0.39949-0.69912-0.89886-0.69912l-33.85762,3.49562v-4.99374
		l34.05737-3.89513c0.39949,0,0.69911-0.3995,0.69911-0.89888c0-0.3995-0.39949-0.69913-0.89886-0.69913l-33.85762,3.89512v-8.28962
		l5.69287-0.799l-0.19974-1.598l-5.49313,0.799V45.28253l29.86261-4.99375l-0.39949,12.48437
		c0,0.19975,0.09988,0.49938,0.29962,0.59925c0.09988,0.09987,0.29964,0.19975,0.49937,0.19975h0.09988l10.7865-1.598v26.6666
		l-4.09488,0.49937c-0.39949,0-0.69913,0.39951-0.69913,0.799v7.69037c-0.69911,0.19975-1.39824,0.49937-2.09738,0.799
		c-2.29712,0.99875-4.29462,2.49687-5.79274,4.29462l-12.98375,0.49937c-0.39949,0-0.799,0.3995-0.799,0.799
		c0,0.3995,0.39949,0.799,0.799,0.799l0,0l11.68536-0.49937c-1.49812,2.09737-2.49687,4.59425-2.99625,7.29087l-8.68912,0.19975
		c-0.39949,0-0.799,0.39951-0.799,0.799c0,0.39951,0.39949,0.799,0.799,0.799l0,0l8.48936-0.19975
		c-0.19974,2.49687,0,4.89388,0.59926,7.19099l-9.08862,0.19975c-0.39949,0-0.799,0.3995-0.799,0.799
		c0,0.3995,0.39949,0.799,0.799,0.799l0,0l9.588-0.19975c0.99875,2.69662,2.59676,5.1935,4.69412,6.99125
		c0.89886,0.799,1.79776,1.39825,2.99625,1.9975L163.60822,120.58823z M224.13243,159.13997l-6.89137-1.29839v-7.49062
		c1.79776,0.49937,3.79526,0.799,5.89262,0.799c0.29962,0,0.69911,0,0.99875,0V159.13997z M232.42204,147.35472
		c-12.68411,5.79274-23.07111-2.19725-25.26836-4.09488l3.69537-7.89012c5.39323,6.29213,11.8851,6.49188,16.37949,4.3945
		c3.5955-1.69788,4.19473-6.09238,3.39574-8.68912c-0.799-2.99625-3.196-4.59425-7.89012-6.7915
		c-1.89761-0.89887-3.39574-1.598-4.79399-2.19724c-3.995-1.79775-5.99249-2.7965-7.79025-4.29462
		c-3.995-3.49563-6.09238-9.588-5.1935-15.38074c0.79901-5.69287,4.19475-10.28712,9.28838-12.58424
		c3.89511-1.79775,7.79025-1.69787,11.08612-0.89887l0,0h0.09988c5.39325,1.39825,9.588,4.69411,10.98625,5.89262l-3.99501,6.09237
		c-6.39198-4.49437-10.58675-4.3945-13.08362-3.49562c-2.79649,1.09862-4.39449,3.59549-4.79399,5.59299
		c-0.69913,3.39574,0.19974,7.89012,13.38322,12.48437c8.3895,2.89637,12.08488,7.98999,12.08488,16.37948
		C240.11241,139.4646,237.21605,145.15747,232.42204,147.35472z" class="svg-style-0"/><path d="M33.97054,113.39724c-8.18975-5.29337-18.17724-4.69412-22.67161,1.39825
		c-0.19975,0.19975-0.29963,0.49937-0.49937,0.69913c-0.09988,0.19975-0.19975,0.29963-0.29963,0.49937l0,0l-1.39825,2.69662
		c-0.09988,0.09988-0.09988,0.29963-0.19975,0.39951l-0.09988,0.29962l0,0c-2.59675,6.19225,0.89887,14.68162,8.48937,19.67536
		c3.69537,2.39699,7.79025,3.69537,11.68537,3.69537c0.3995,0,0.69913,0,1.09863,0c4.29462-0.29964,7.79025-2.09738,9.78775-5.1935
		c0.09987-0.09988,0.09987-0.19975,0.19975-0.29962l0,0l0.19975-0.39951c0.09988-0.29962,0.29963-0.49937,0.3995-0.799
		l1.1985-2.29713l0,0C45.25641,127.47961,41.76079,118.49086,33.97054,113.39724z M39.26391,135.56947l-0.3995,0.799
		c-0.09987,0.19975-0.19975,0.29964-0.29962,0.49937c-1.69788,2.69662-4.794,4.29463-8.58925,4.49438
		c-3.89512,0.19974-8.08987-0.99875-11.78524-3.39575c-7.09112-4.59425-10.38699-12.38449-7.89012-17.87761l0.19975-0.39951
		c0.09988-0.29963,0.29963-0.59924,0.49937-0.799c1.69787-2.69662,4.794-4.29462,8.58925-4.49437c0.29963,0,0.59925,0,0.99875,0
		c3.5955,0,7.39075,1.19849,10.88637,3.39575C38.46492,122.28611,41.76079,129.97649,39.26391,135.56947z" class="svg-style-0"/><path d="M30.27517,119.28986c-3.196-2.09737-6.7915-3.196-10.08737-2.99625c-3.39575,0.09987-6.19225,1.49812-7.79025,3.89512
		c-3.196,4.89388-0.29962,12.38449,6.29212,16.77899c2.99625,1.9975,6.392,2.99625,9.588,2.99625c0.19975,0,0.3995,0,0.59925,0
		c3.39575-0.09987,6.19225-1.49812,7.79025-3.89511C39.76329,131.17499,36.96679,123.68436,30.27517,119.28986z M35.26892,135.16998
		c-1.29837,1.9975-3.5955,3.09613-6.49187,3.19598c-2.99625,0.09988-6.29212-0.89886-9.1885-2.79649
		c-5.89262-3.89511-8.58924-10.38699-5.89262-14.58174c1.29837-1.9975,3.5955-3.09612,6.49187-3.19599
		c0.19975,0,0.29962,0,0.49937,0c2.89637,0,5.89262,0.99875,8.68912,2.7965
		C35.36879,124.48335,37.96554,131.0751,35.26892,135.16998z" class="svg-style-0"/><path d="M32.27267,126.58073c-2.19725-2.397-6.09237-2.7965-8.98874-0.69912c-2.09737,1.49812-2.99625,0.99875-3.49562,0.799
		c-0.29962-0.09988-0.29962-0.59925-0.19975-0.89888c0.19975-0.59924,0.89887-1.29838,2.09737-1.09862
		c0.3995,0.09987,0.69913-0.09988,0.89887-0.49937l0.89887-2.29713c0.09988-0.29963,0-0.69913-0.29962-0.89888
		c-1.09863-0.799-3.89512-1.598-6.59175,0.59925l-0.799-0.39951c-0.19975-0.09987-0.3995-0.09987-0.59925-0.09987
		c-0.19975,0.09987-0.3995,0.19975-0.49938,0.3995l-1.29837,2.397c-0.09988,0.19975-0.09988,0.3995-0.09988,0.59924
		c0.09988,0.19975,0.19975,0.39951,0.3995,0.49937l0.89887,0.49938c-0.19975,1.79774,0.49938,4.69413,3.89512,5.89262
		c1.598,0.59926,4.89387,0.69913,7.09112-1.09863c0.89887-0.799,1.89762-0.69911,2.397-0.39949
		c0.49937,0.29964,0.69913,0.69913,0.59925,1.09863c-0.09987,0.39949-0.29962,0.799-0.69913,0.99875
		c-0.3995,0.19975-0.99875,0.19975-1.69787,0c-0.3995-0.09988-0.799,0-0.99875,0.39949l-1.09863,1.9975
		c-0.19975,0.29964-0.09988,0.79901,0.19975,0.99875c0.09987,0.09988,2.19725,1.69788,5.89262,0.19975l1.79775,0.89886
		c0.09988,0.09988,0.19975,0.09988,0.3995,0.09988c0.29963,0,0.49937-0.09988,0.69913-0.29962l1.49812-2.19725
		c0.09987-0.19975,0.19975-0.39949,0.09987-0.59926c0-0.19975-0.19975-0.39949-0.3995-0.49937l-1.09862-0.69913
		C33.77079,130.87535,34.07042,128.47836,32.27267,126.58073z M32.47242,134.57072l-1.49813-0.79901
		c-0.09988-0.09987-0.19975-0.09987-0.3995-0.09987c-0.09987,0-0.19975,0-0.29962,0.09987
		c-1.9975,0.89888-3.39575,0.69913-4.09487,0.39951l0.3995-0.69913c0.799,0.19975,1.598,0.09988,2.29712-0.29962
		c0.799-0.39951,1.29837-1.1985,1.49812-1.9975c0.19975-1.09863-0.29962-2.19725-1.29837-2.79651
		c-1.29837-0.799-2.99625-0.49937-4.29462,0.59926c-1.69787,1.39824-4.29462,1.29837-5.49312,0.89886
		c-3.49562-1.1985-2.7965-4.59425-2.7965-4.69411c0.09987-0.39951-0.09987-0.69913-0.3995-0.89888l-0.69912-0.3995l0.49938-0.99875
		l0.59925,0.29963c0.29962,0.19975,0.69913,0.09987,0.89887-0.09988c1.89762-1.79775,3.5955-1.39825,4.49437-1.09863
		l-0.3995,1.09863c-1.69788,0-2.7965,0.99875-3.196,2.19724c-0.3995,1.1985,0,2.29713,0.99875,2.7965
		c0.59925,0.29962,2.19725,1.19849,5.09362-0.89888c2.19725-1.598,5.1935-1.29838,6.89137,0.49937
		c1.598,1.79774,0.69913,4.49438,0.69913,4.49438c-0.09987,0.39949,0,0.799,0.29962,0.89886l0.89888,0.59926L32.47242,134.57072z" class="svg-style-0"/><path d="M61.43615,19.41492c0.09988-0.19975,0.09988-0.3995,0-0.59925c-0.09987-0.19975-0.19975-0.3995-0.3995-0.3995
		l-2.49687-1.09863c-0.19975-0.09987-0.3995-0.09987-0.59925,0c-0.19975,0.09988-0.3995,0.19975-0.3995,0.3995l-0.3995,0.99875
		c-1.79775,0-4.69412,0.799-5.59299,4.29462c-0.49937,1.69787-0.3995,4.89387,1.598,6.99125
		c0.89888,0.89887,0.89888,1.79775,0.59925,2.397c-0.19975,0.49937-0.59925,0.69913-1.09863,0.69913
		c-0.3995-0.09987-0.799-0.29963-0.99875-0.59925c-0.29962-0.3995-0.29962-0.99875-0.09987-1.69788
		c0.09987-0.3995-0.09987-0.799-0.3995-0.99875l-2.09737-0.89887c-0.3995-0.19975-0.799,0-0.99875,0.29963
		c-0.09987,0.09987-1.49812,2.397,0.19975,5.89262l-0.799,1.89762c-0.19975,0.3995,0,0.799,0.29963,0.99875l2.29712,1.29837
		c0.09987,0.09987,0.29962,0.09987,0.3995,0.09987c0.09987,0,0.19975,0,0.19975,0c0.19975-0.09987,0.3995-0.19975,0.49937-0.3995
		l0.59925-1.1985c1.1985,0.19975,3.5955,0.29963,5.39325-1.598c2.29712-2.397,2.29712-6.29212,0.09987-8.98875
		c-1.598-1.9975-1.1985-2.89637-0.99875-3.39575c0.09987-0.29962,0.59925-0.29962,0.89888-0.19975
		c0.59925,0.19975,1.29837,0.799,1.1985,1.9975c0,0.3995,0.19975,0.69913,0.59925,0.799l2.29712,0.69913
		c0.29963,0.09987,0.69912,0,0.89888-0.3995c0.69912-1.1985,1.29837-3.995-1.09863-6.49187L61.43615,19.41492z M60.93678,25.40742
		l-0.99875-0.3995c-0.09987-1.69788-1.1985-2.69662-2.397-3.09612c-1.1985-0.29962-2.29712,0.19975-2.7965,1.1985
		c-0.29963,0.59925-0.99875,2.19725,1.1985,4.99375c1.69788,2.09737,1.69788,5.09362,0,6.89137
		c-1.598,1.69788-4.3945,0.99875-4.3945,0.99875c-0.3995-0.09987-0.69913,0.09987-0.89888,0.3995l-0.49937,0.99875l-0.99875-0.59925
		l0.69912-1.598c0.09987-0.19975,0.09987-0.49937,0-0.69912c-0.99875-1.89762-0.89888-3.29587-0.69912-3.995l0.69912,0.29963
		c-0.09987,0.799,0,1.598,0.3995,2.29712c0.49937,0.69912,1.29837,1.1985,2.09737,1.29837
		c1.09862,0.09987,2.19725-0.49937,2.69662-1.49813c0.69912-1.29837,0.29962-2.99625-0.89888-4.19475
		c-1.598-1.598-1.598-4.19475-1.1985-5.49312c0.99875-3.49562,4.3945-3.09612,4.49437-3.09612
		c0.3995,0.09988,0.69912-0.09987,0.799-0.49937l0.29963-0.69913l0.99875,0.49937l-0.29962,0.59925
		c-0.09988,0.29962-0.09988,0.69913,0.19975,0.89887C61.43615,22.71079,61.2364,24.50854,60.93678,25.40742z" class="svg-style-0"/><path d="M34.56979,63.75939c-1.29837-3.995-3.995-7.39075-7.79024-9.48812c-3.79525-2.19725-8.08987-2.89638-12.18474-1.9975
		s-7.49062,3.29588-9.48812,6.7915c-1.9975,3.49562-2.397,7.59049-1.09862,11.58549c1.29837,3.995,3.995,7.39075,7.79025,9.48811
		c2.7965,1.598,5.79275,2.397,8.68912,2.397c5.29337,0,10.28712-2.49687,12.98374-7.19099
		C35.36879,71.94914,35.76829,67.75439,34.56979,63.75939z M32.07292,74.54588c-3.69537,6.392-12.38449,8.28963-19.47561,4.19475
		c-3.39575-1.9975-5.89262-5.09362-7.09112-8.68912c-1.09862-3.5955-0.799-7.191,0.99875-10.28712
		c1.79775-3.09612,4.794-5.1935,8.38949-5.9925c0.99875-0.19975,2.09737-0.29963,3.196-0.29963
		c2.69662,0,5.39325,0.69912,7.89012,2.19725c3.39575,1.9975,5.89262,5.09362,7.09112,8.68912
		C34.17029,67.85427,33.77079,71.54964,32.07292,74.54588z" class="svg-style-0"/><path d="M29.07667,72.84801L29.07667,72.84801c0.19975-0.29963,0.29963-0.69912,0.3995-0.99875
		c1.09863-3.39575-0.89887-7.39075-4.49437-8.68912c-3.39575-1.29837-6.49187,0.799-7.89012,1.89762
		c-0.19975,0.09987-0.29963,0.19975-0.3995,0.29962c-0.49937,0.29963-1.09863,0.39951-1.49812,0.19975
		c-0.49938-0.19975-0.59925-0.799-0.59925-1.1985c0-1.598,2.19725-2.99625,3.09612-3.39575
		c0.19975-0.09987,0.3995-0.29962,0.3995-0.59925s0-0.49937-0.19975-0.69913l-2.49687-2.49687
		c-0.29962-0.19975-0.59925-0.29963-0.89887-0.09987c0,0-0.89887,0.49937-1.89762,1.49812l-1.1985-0.99875
		c-0.19975-0.09987-0.3995-0.19975-0.59925-0.19975s-0.3995,0.09988-0.49938,0.29963l-1.69787,2.19725
		c-0.49937,0.29962-0.3995,0.799-0.09987,1.09862l1.39825,1.1985c-0.49938,1.29837-0.49938,2.69662-0.09988,3.99499
		c0.59925,1.89763,2.69662,5.39325,6.89137,4.89388c1.39825-0.19975,2.89637-0.3995,5.29337-2.19724
		c0.69913-0.49937,1.29837-0.39951,1.69787-0.09988c0.49937,0.29963,0.69913,0.99875,0.59925,1.69787
		c-0.29963,1.29838-2.99625,2.49688-4.59425,2.99625c-0.29963,0-0.49937,0.29962-0.49937,0.49937
		c-0.09988,0.29962,0,0.59924,0.19975,0.799l2.49687,2.49687c0.09988,0.09987,0.29963,0.19975,0.59925,0.19975
		c0.09987,0,0.09987,0,0.19975,0c0.09987,0,1.598-0.49937,3.196-1.49812l1.09862,1.09863c0.29963,0.29962,0.799,0.29962,1.09863,0
		l1.9975-1.99751c0.19975-0.09987,0.19975-0.29962,0.19975-0.59924c0-0.19975-0.09988-0.39951-0.19975-0.59925L29.07667,72.84801z
		 M27.57855,75.34489l-0.99875-0.99875c-0.29963-0.29963-0.69913-0.29963-0.99875-0.09988
		c-1.09862,0.799-2.29712,1.1985-2.89637,1.49813l-1.29837-1.29838c1.598-0.59925,4.09487-1.89763,4.49437-3.79525
		c0.29962-1.39825-0.19975-2.59675-1.29837-3.29588c-1.09863-0.69913-2.397-0.59925-3.49562,0.19975
		c-2.09737,1.49812-3.29587,1.79775-4.49437,1.89762c-3.89512,0.39951-5.1935-3.5955-5.1935-3.79525
		c-0.3995-1.19849-0.29963-2.29712,0.19975-3.49562c0.09988-0.29963,0.09988-0.69913-0.19975-0.89888l-1.29838-1.09863
		l0.69913-0.99875l1.09862,0.99875c0.29963,0.29963,0.799,0.19975,1.09863-0.09987c0.59925-0.59925,1.1985-1.09862,1.598-1.39825
		l1.29838,1.29837c-1.1985,0.799-3.09612,2.29712-2.99625,4.39449c0,1.09863,0.59925,2.09737,1.39825,2.49687
		c0.89887,0.49938,2.09737,0.39951,3.09612-0.29962c0.09987-0.09988,0.29962-0.19975,0.49937-0.29963
		c1.39825-0.99875,3.79525-2.59675,6.49187-1.69788c2.7965,0.99876,4.3945,4.09487,3.5955,6.69162
		c-0.09988,0.39951-0.29963,0.799-0.59925,1.1985c-0.19975,0.29962-0.19975,0.69912,0.09988,0.99875l0.99875,0.99875
		C28.37755,74.54588,27.57855,75.34489,27.57855,75.34489z" class="svg-style-0"/></g></svg>