<?xml version="1.0" encoding="UTF-8"?>
<svg id="Layer_1" data-name="Layer 1" xmlns="http://www.w3.org/2000/svg" version="1.1" viewBox="0 0 221.1748 250">
  <defs>
    <style>
      .cls-1 {
        fill: #000;
        stroke-width: 0px;
      }
    </style>
  </defs>
  <path id="path-01" class="cls-1" d="M33.81305,64.70753c0-5.16945,3.77775-9.03083,8.08665-8.655,3.96447.34579,6.95336,4.2099,6.95336,8.65466s-2.98889,8.30887-6.95336,8.655c-4.3089.37617-8.08665-3.48487-8.08665-8.65466ZM214.76556,123.76089l-44.60389-27.72946c.05974,6.73899-.42362,13.45886-1.51151,20.06267l-6.91035,41.94953c-.96808,5.87537-1.45962,11.87498-1.45962,17.83364v7.33226h5.5504c4.86906,0,8.83148,3.96242,8.83148,8.83148v49.1275c0,4.86906-3.96242,8.83148-8.83148,8.83148h-97.23641c-4.87042,0-8.83285-3.96242-8.83285-8.83148v-49.1275c0-4.86906,3.96242-8.83148,8.83285-8.83148h5.54767v-2.88511c0-4.66698-1.97712-9.14826-5.42478-12.29416l-34.90674-31.86051c-6.06447-5.53538-10.51503-12.5314-13.02261-20.20399l-14.31702,9.2452c-.6909.44512-1.48284.67042-2.27614.67042-.68953,0-1.37907-.16931-2.00579-.51066-1.34903-.73459-2.18875-2.14779-2.18875-3.68388V7.72823c0-1.50878.80969-2.90013,2.12048-3.64565s2.92335-.7305,4.21776.04096l49.29033,29.31811.36286-5.93135c.37549-8.93116,7.73779-15.98897,16.75769-15.98897,3.32751,0,6.41197.87659,9.05404,2.51645,1.30533-7.90437,8.29487-14.03779,16.55698-14.03779,6.8134,0,12.6915,4.08258,15.31582,9.93064,2.76769-2.01398,6.17302-3.20326,9.85008-3.20326,9.18922,0,16.71264,7.36366,16.90789,16.41634l.17204,4.40345c2.69532-1.76138,5.84533-2.70488,9.14826-2.70488h.6909c6.68744,0,12.46074,3.88937,15.15538,9.57426L214.70548,2.7158c1.29031-.83154,2.9329-.89298,4.28056-.15975,1.34903.73459,2.18875,2.14779,2.18875,3.68388v113.9586c0,1.52243-.82607,2.92608-2.15735,3.66613-.63355.35228-1.33674.52841-2.03719.52841-.77009,0-1.53745-.21164-2.2147-.63219ZM187.79049,85.43379c.75371-1.54428,1.82829-2.90833,3.19097-4.0225,2.16827-1.77367,4.895-2.78134,7.9385-2.97796v-26.41935c-3.0435-.19662-5.77023-1.20566-7.93987-2.97933-1.43232-1.17152-2.54513-2.61886-3.30293-4.26281l-19.85308,7.05372.77385,13.73706.68305,12.12246,18.50952,7.74871ZM175.06076,89.1996l37.72495,23.45231V13.94085l-44.80802,28.92692,21.31749-7.57462c1.28485-.45468,2.71034-.26079,3.82452.52568,1.11281.78648,1.77503,2.0645,1.77503,3.42718,0,1.42822.4697,2.53693,1.39682,3.29337,1.30397,1.06912,3.4859,1.39135,5.99006.88069,1.2275-.2526,2.51372.06691,3.48863.86431.97354.79603,1.53882,1.98804,1.53882,3.24695v35.38464c0,1.25891-.56528,2.45091-1.54018,3.24695s-2.25703,1.11008-3.48863.86431c-2.49734-.50793-4.68336-.18706-5.98869.87932-.92711.75644-1.39682,1.86515-1.39682,3.29337,0,1.40364-.70182,2.71444-1.87061,3.49272-.69909.46424-1.50878.70182-2.32393.70182-.5489,0-1.09916-.10787-1.61938-.32497l-14.02004-5.8699ZM8.38909,113.98454l39.92975-25.78443-14.97139,6.34643c-.52568.22393-1.08277.33316-1.63713.33316-.81242,0-1.61938-.23622-2.31574-.69773-1.17289-.77692-1.87881-2.09044-1.87881-3.49682,0-1.42959-.4697-2.5383-1.39682-3.29474-1.30533-1.06775-3.49136-1.38999-5.98869-.87932-1.24252.24577-2.51509-.06827-3.48863-.86431-.9749-.79603-1.54018-1.98804-1.54018-3.24695v-35.38464c0-1.25891.56528-2.45091,1.53882-3.24695.97627-.7974,2.25839-1.11418,3.48863-.86431,2.50553.5093,4.68609.18843,5.99143-.88069.92575-.75644,1.39545-1.86515,1.39545-3.29337,0-1.36541.66496-2.64617,1.78186-3.43128,1.11964-.78648,2.54922-.97627,3.83271-.51613l21.11609,7.59647L8.38909,15.10418v98.88036ZM54.52839,51.39647l-19.80188-7.12438c-.7578,1.63713-1.86925,3.079-3.2961,4.24643-2.16964,1.77367-4.89637,2.78271-7.93987,2.97796v26.42071c3.0435.19525,5.76886,1.20429,7.9385,2.97796,1.35722,1.11008,2.4277,2.4673,3.18141,4.00475l18.3443-7.77602,1.57364-25.72742ZM82.53093,180.32442v2.88511h68.48835l.87182.7223v-8.05456c0-6.4147.52841-12.8731,1.57159-19.19768l6.91035-41.94817c1.192-7.24078,1.64942-14.62765,1.35585-21.95718l-2.90013-51.46099c-.19798-4.55638-3.87913-8.08187-8.38363-8.08187h-.6909c-2.27478,0-4.40482.89571-5.99552,2.52328-1.59207,1.62757-2.44136,3.77809-2.39084,6.05423l.72094,23.72266c.06964,2.30755-1.73953,4.2396-4.04844,4.3188-2.29526.05462-4.24643-1.72042-4.33655-4.02796l-1.65488-42.4247c-.09968-4.59871-3.86138-8.28122-8.38772-8.28122-4.76119,0-8.52426,3.76307-8.52426,8.38909v42.15298c0,2.3171-1.87744,4.19454-4.19454,4.19454s-4.19454-1.87744-4.19454-4.19454V16.77681c0-4.62465-3.76307-8.38772-8.38772-8.38772-4.5277,0-8.28941,3.68251-8.38772,8.20885l-.35364,9.7149c.09148.77282.12835,1.55657.1106,2.34987l-1.54838,37.17059c-.09558,2.30891-1.99487,4.07848-4.3543,4.01704-2.31028-.09012-4.11262-2.0331-4.02796-4.34474l1.41047-38.76403c-.29766-1.5948-1.07185-3.09675-2.25839-4.30924-1.5907-1.6262-3.71938-2.52191-5.99416-2.52191-4.7175,0-8.39865,3.52822-8.58844,8.03272l-1.27393,20.82594v.00205l-.82403,13.46193-2.57585,42.10622c-.05598.92131-.41372,1.75148-.96057,2.41575-.82471,1.00255-2.08976,1.61631-3.48248,1.5139-2.31164-.14064-4.07166-2.13004-3.92965-4.44305l.48267-7.89003-23.63595,15.26325c1.88768,7.14929,5.75009,13.71214,11.29741,18.77441l34.90674,31.86051c5.18447,4.73115,8.15833,11.47082,8.15833,18.4904ZM165.83058,191.59862h-9.71763c-.00956,0-.01809.00273-.02731.00273s-.01775-.00273-.02731-.00273h-77.69464c-.00956,0-.01809.00273-.02731.00273s-.01775-.00273-.02731-.00273h-9.7149c-.24441,0-.44376.19798-.44376.44239v49.1275c0,.24441.19935.44239.44376.44239h97.23641c.24441,0,.44239-.19798.44239-.44239v-49.1275c0-.24441-.19798-.44239-.44239-.44239ZM180.5108,56.56831c-3.96447.34579-6.95336,4.2099-6.95336,8.65466s2.98889,8.30887,6.95336,8.655c4.3089.37617,8.08665-3.48487,8.08665-8.65466s-3.77775-9.03117-8.08665-8.655Z"/>
</svg>