<svg version="1.1" id="Layer_1" xmlns="http://www.w3.org/2000/svg" xmlns:xlink="http://www.w3.org/1999/xlink" x="0px" y="0px" viewBox="0 0 168.59729 250" style="enable-background:new 0 0 168.59729 250;" xml:space="preserve"><defs><style> .svg-style-0 {  fill: rgb(0, 0, 0); }</style></defs><path id="path-03" d="M96.34235,35.08407C82.11201,14.9396,55.50577,9.16594,37.03139,22.2153
	c-8.978,6.3422-14.71194,16.11867-16.14501,27.52845c-1.42471,11.33913,1.57688,22.94205,8.44958,32.6717
	c6.87354,9.73006,16.80636,16.43681,27.96908,18.88448c3.04339,0.6672,6.07758,0.99704,9.06579,0.99704
	c8.03905,0,15.72947-2.38831,22.27526-7.01234C107.11963,82.23528,110.57187,55.22938,96.34235,35.08407z M86.24484,91.88591
	c-8.01147,5.6587-17.97523,7.5583-28.04851,5.34934c-10.14686-2.22485-19.1884-8.34048-25.46079-17.22065
	c-6.27323-8.87975-9.01478-19.44592-7.72051-29.75247c1.28508-10.23507,6.40534-18.98899,14.41764-24.6481
	c5.96638-4.21434,12.88591-6.22556,19.9066-6.22556c12.51218,0,25.33621,6.39321,33.60352,18.09646
	c12.90681,18.2712,9.90189,42.67558-6.69796,54.401V91.88591z" class="svg-style-0"/><path id="path-02" d="M59.75816,50.89882c-0.51754,0.08946-0.98409,0.17056-1.38792,0.23034
	c-1.76918,0.26044-3.3611-0.22281-4.16125-1.25874c-0.88877-1.15256-0.55935-2.60778-0.12625-3.62489
	c1.7558-4.11777,9.00057-5.01365,11.68611-5.01365c0.01421,0,0.0276-0.00084,0.04264,0c0.68059,0,1.31853-0.33276,1.70731-0.89169
	c0.39129-0.56186,0.48159-1.28049,0.23996-1.92135L64.3082,29.2427c-0.32859-0.87247-1.19729-1.42262-2.12535-1.34068
	c-0.13796,0.01213-2.98904,0.26797-6.58007,1.43223l-1.92302-4.06134c-0.24414-0.51629-0.68978-0.90925-1.23324-1.08692
	c-0.54095-0.17725-1.13458-0.12458-1.63708,0.14716l-6.68375,3.61528c-0.97238,0.52633-1.36367,1.7211-0.89044,2.72024
	l2.18388,4.61483c-2.71063,2.75202-4.3293,6.09012-4.8134,9.9115c-0.806,5.34726,0.56437,16.41758,11.51722,20.04247
	c3.54421,1.17847,7.67202,2.19476,15.66927,0.57314c2.22485-0.45359,3.78835,0.61286,4.51241,1.76082
	c0.93893,1.49034,0.77505,3.33937-0.43979,4.94718c-2.21231,2.93093-10.42862,2.95476-15.09153,2.2817
	c-0.73158-0.10535-1.46149,0.18436-1.92302,0.76002c-0.46069,0.57649-0.58276,1.35364-0.31855,2.04301l3.49237,9.11888
	c0.26588,0.69438,0.88208,1.19395,1.61617,1.31058c0.2015,0.03178,4.52412,0.70023,9.70707,0.06522l1.4916,3.99487
	c0.31186,0.83568,1.10448,1.35365,1.94894,1.35365c0.22993,0,0.46404-0.03846,0.69396-0.11957l7.28323-2.57517
	c0.52256-0.18478,0.94981-0.57063,1.18726-1.07188c0.23662-0.50166,0.26421-1.07689,0.07525-1.5982l-1.45815-4.02579
	c0.83276-0.6045,1.60364-1.27881,2.30428-2.01583c6.69713-7.07922,6.09598-19.29584-1.31267-26.67731
	c-7.04327-7.01526-17.01121-5.29165-21.80287-4.46392V50.89882z M79.85371,79.17683
	c-0.82188,0.86494-1.78005,1.61868-2.84858,2.24074c-0.86954,0.50626-1.25247,1.56225-0.90884,2.50787l1.30431,3.6019
	l-3.37866,1.19478l-1.36534-3.65708c-0.30769-0.82481-1.09278-1.35322-1.9481-1.35322c-0.11956,0-0.24163,0.01045-0.36286,0.03177
	c-3.67213,0.64797-7.14528,0.47449-8.88603,0.31396l-1.84108-4.80714c4.59937,0.26003,12.37505,0.00334,15.56727-4.22395
	c2.26498-2.99866,2.50996-6.70507,0.63878-9.67363c-1.83942-2.9209-5.3251-4.34101-8.86011-3.6203
	c-6.99729,1.41927-10.39184,0.59949-13.53138-0.44481c-10.33833-3.4213-8.78319-14.98702-8.70543-15.52086
	c0.42307-3.33895,1.96315-6.17373,4.57846-8.42492c0.70985-0.61077,0.92389-1.62035,0.5234-2.4669l-1.98991-4.2043l3.01914-1.63289
	l1.78925,3.77999c0.46821,0.98827,1.62119,1.44687,2.64039,1.04596c2.25077-0.88292,4.35606-1.35489,5.71221-1.59402
	l1.88121,5.00236c-3.85607,0.47407-10.37428,2.05847-12.62755,7.34259c-1.20983,2.84314-0.96987,5.68503,0.65968,7.79743
	c1.74326,2.25913,4.74986,3.32014,8.06331,2.83353c0.4356-0.06439,0.93559-0.1505,1.48992-0.24622
	c4.72645-0.81688,12.63926-2.18556,18.15749,3.31135C84.37448,64.04015,84.94804,73.79238,79.85371,79.17683z" class="svg-style-0"/><path id="path-01" d="M167.74745,61.17026c-0.55602-0.40718-1.27672-0.51378-1.92386-0.28343
	c-38.75137,13.69818-53.73672,33.77201-59.48487,48.20009c-1.9387,4.86649-2.99166,9.41052-3.51945,13.38846
	c-2.20645-7.25167-4.85239-14.53495-8.00499-21.7376l8.98605-5.64459L103.158,94.0709l0.68831,0.99052
	c0.01421-0.01003,0.06271-0.04348,0.07609-0.05351c10.43197-7.63731,17.05385-19.25236,18.64494-32.70472
	c1.58524-13.39969-2.01164-27.10497-10.12846-38.59126c-8.19708-11.60584-20.04288-19.6052-33.35353-22.52401
	C65.74308-1.7379,52.52848,0.7833,41.85426,8.28308l-7.34787,4.41871l0.02764,0.04599
	c-0.65633,0.4146-1.30677,0.84389-1.94733,1.29637c-10.69115,7.55161-17.51871,19.19592-19.22602,32.7875
	c-1.69811,13.52092,1.88122,27.35873,10.07913,38.96415c10.82661,15.32647,27.65136,23.67781,44.13332,23.67781
	c5.36643,0,10.69638-0.89149,15.77148-2.71146c2.02251,4.35475,7.47313,17.10767,11.54513,35.94522
	c-4.29994-6.55275-11.04661-14.12552-21.30927-19.77095c-18.66584-10.26893-42.93017-10.8914-72.11493-1.85446
	c-0.59698,0.18478-1.08024,0.62875-1.31434,1.20858s-0.19481,1.23408,0.10702,1.78172
	c0.38377,0.69772,9.59419,17.22901,26.54186,29.97695c9.80573,7.37604,23.3948,14.22993,40.03812,14.22993
	c9.43424,0,19.8533-2.21022,31.11446-7.77031c2.84775,21.94987,3.32213,51.17921-4.6119,84.36172
	c-0.12959,0.54137-0.03679,1.112,0.25751,1.5844c0.29514,0.4724,0.7667,0.80725,1.30933,0.92932l11.4102,2.56514
	c0.15133,0.03386,0.30434,0.05058,0.4565,0.05058c0.39464,0,0.7851-0.11246,1.12204-0.32858
	c0.46822-0.29974,0.7968-0.77464,0.91302-1.31812c0.04181-0.19772,4.22312-20.11646,4.489-48.28787
	c0.15552-16.45828-1.04553-37.96706-6.07444-60.74005c23.94798-1.60745,42.1132-15.15038,52.60652-39.27791
	c8.03822-18.48232,8.7397-36.37476,8.76562-37.12767c0.02341-0.68769-0.29431-1.34235-0.84863-1.74953V61.17026z
	 M135.93672,93.04991l-2.44852-10.9979c7.05707-5.21431,15.4218-9.86379,25-13.87772
	C153.01982,73.93348,144.72691,82.86496,135.93672,93.04991z M129.85455,84.87969l2.69943,12.12537
	c-5.15358,6.07893-10.37208,12.49519-15.20345,18.87643l-4.49903-10.91502
	C116.78669,97.65199,122.49566,90.92242,129.85455,84.87969z M117.76722,122.2793l18.43006,2.55239
	c-7.67244,5.7478-16.72652,9.14924-27.11678,10.1719C111.64365,130.90295,114.58828,126.62093,117.76722,122.2793z
	 M110.30181,110.3837c0.04557-0.11267,0.09647-0.22366,0.14276-0.33611l4.00783,9.72238
	c-2.83781,3.87222-5.49399,7.70086-7.87027,11.40362C106.38826,126.33949,106.88218,118.84791,110.30181,110.3837z
	 M26.83939,83.39536c-7.5976-10.75595-10.91857-23.557-9.35006-36.04492c1.56016-12.41728,7.77402-23.03862,17.49866-29.90757
	c7.24143-5.11566,15.64168-7.55705,24.16066-7.55705c15.16678,0,30.70562,7.74309,40.72121,21.9216
	c7.5976,10.75595,10.91858,23.557,9.35006,36.04534c-1.55932,12.41728-7.77319,23.03862-17.49781,29.90757
	c-0.04411,0.0312-0.09009,0.05836-0.1343,0.08936l-1.34392,0.84414l0.02216,0.03538
	C70.2067,111.65759,42.10991,105.01314,26.83939,83.39536z M95.04432,151.4893c-5.03633-3.38547-10.27625-6.39938-15.58817-9.08601
	l-3.53135-13.15434C86.2904,136.28552,92.10032,145.45044,95.04432,151.4893z M73.51752,144.12318l-24.99503,17.02313
	c-6.47201-2.21912-12.81541-5.63702-19.01318-10.26878l24.42372-14.6265C60.35549,138.43398,66.96728,141.03293,73.51752,144.12318z
	 M55.41339,132.37427l-4.09959-12.55414c7.08204,1.10757,13.58154,3.22331,19.47559,6.34628l3.7129,13.83215
	C68.10935,137.02458,61.67272,134.50636,55.41339,132.37427z M46.75029,119.25274l3.76081,11.51586
	c-15.0317-4.72457-28.63639-7.24096-37.5487-8.52995C25.29665,119.29914,36.57898,118.30612,46.75029,119.25274z M6.04888,125.53913
	c7.37092,0.82126,23.84095,3.15261,42.63806,9.00277l-22.6617,13.5712C16.12038,139.86188,9.28362,130.48254,6.04888,125.53913z
	 M53.68877,162.66304l24.12852-16.433c6.12827,3.11551,12.14899,6.68182,17.85326,10.76088
	C81.23316,164.03355,67.1935,165.92606,53.68877,162.66304z M105.13307,245.41776l-7.264-1.6329
	c7.89504-34.3246,6.99362-64.39729,3.82983-86.61142c-0.00595-0.08737-0.02111-0.17459-0.03835-0.26207
	c-0.7019-4.88588-1.51072-9.39484-2.36009-13.47556c-4.17546-20.05711-9.8515-33.43882-12.09893-38.26586
	c1.38228-0.64588,2.74114-1.36153,4.06928-2.15718C117.88228,164.40796,107.41258,232.76239,105.13307,245.41776z
	 M140.49835,121.22645l-19.89626-2.75546c4.77933-6.31817,9.95309-12.68137,15.06833-18.71574l18.54764,2.49528
	C150.4436,109.8892,145.86504,116.22089,140.49835,121.22645z M156.05046,98.29787l-17.16023-2.30851
	c10.22733-11.85918,19.81567-22.04764,25.03041-27.48028C163.10983,75.16603,161.0705,86.71899,156.05046,98.29787z" class="svg-style-0"/></svg>