<svg version="1.1" id="Layer_1" xmlns="http://www.w3.org/2000/svg" xmlns:xlink="http://www.w3.org/1999/xlink" x="0px" y="0px" viewBox="42.23404 1353.58276 300 231.51523" style="enable-background:new 42.23404 1353.58276 300 231.51523;" xml:space="preserve"><defs><style> .svg-style-0 {  fill: rgb(0, 0, 0); }</style></defs><path id="path-01_00000028327056785026466620000005301494650166772113_" d="M306.81903,1365.38757
	c0.27863-1.90723-0.40106-4.72839-2.88983-4.46338c-0.52631,0.05603-0.6405-0.8363-0.12463-0.92078
	c1.65411-0.27087,3.12573,0.69397,3.8139,2.19287c0.87372,1.90295,0.30261,4.08936-0.14911,6.02368
	c-0.59607,2.55261-1.23224,5.09351-1.97949,7.60632c-0.36328,1.22168-0.73999,2.43933-1.13043,3.65259
	c-0.35443,1.1012-0.64764,2.33789-1.29797,3.30469c-0.27197,0.40442-1.02686,0.29443-0.98999-0.26807
	c0.12762-1.9458,1.10687-3.98779,1.67133-5.84924c0.5752-1.89697,1.12543-3.80261,1.66675-5.70947
	C305.92761,1369.13171,306.54431,1367.26807,306.81903,1365.38757z M287.34924,1422.64038
	c1.00214-1.95007,1.98438-3.88501,2.81342-5.91687c0.4101-1.005,0.82019-2.00989,1.23029-3.01489
	c0.3501-0.85803,1.12683-2.2052,0.80646-3.14209c-0.14691-0.42957-0.6098-0.64185-1.02142-0.41553
	c-0.85663,0.47107-1.16559,1.8739-1.48517,2.72949c-0.39172,1.04907-0.76776,2.10437-1.15155,3.15649
	c-0.75604,2.07227-1.33405,4.17383-1.90594,6.30237C286.52319,1422.75659,287.14215,1423.04346,287.34924,1422.64038z
	 M272.48389,1460.09961c1.55609-6.06873,4.24072-11.71936,6.85553-17.38391c1.23517-2.67578,2.47888-5.34875,3.62628-8.06372
	c1.17712-2.78528,2.55273-5.65222,2.68481-8.70691c0.01758-0.40686-0.56219-0.54724-0.75708-0.20496
	c-1.49329,2.62244-2.28046,5.60046-3.45044,8.38403c-1.21368,2.88745-2.56635,5.71155-3.83636,8.57373
	c-2.46619,5.55823-4.7049,11.22119-5.62,17.26477C271.93835,1460.28162,272.39929,1460.42944,272.48389,1460.09961z
	 M340.69305,1531.41772c-12.74939,3.53711-25.70825,6.32202-38.7616,8.47314c-21.99353,3.62427-44.30548,5.54858-66.60742,5.52124
	c0.14844,4.05151,0.64539,8.05371,1.0083,12.09631c0.41437,4.62585,0.35138,9.15503-0.54492,13.72632
	c-0.3689,1.87866-2.77539,1.745-3.70123,0.48376c-1.50366-2.04858-3.41931-3.9082-5.50739-5.35559
	c-4.72504-3.27576-10.24738-4.77039-15.81525-5.90771c-6.08978-1.24377-12.29199-1.82727-18.50372-1.90906
	c-12.52496-0.16479-25.00793,1.72095-37.08246,4.98254c-12.18451,3.29138-23.37622,8.83545-34.90638,13.83679
	c-5.73834,2.48914-11.59467,4.90332-17.66144,6.47546c-5.55334,1.43896-11.59662,2.03699-16.96906-0.38025
	c-5.02698-2.26184-8.29077-6.95483-10.65082-11.75586c-2.72595-5.54614-4.99847-11.3512-7.33875-17.06738
	c-5.01825-12.25635-9.6593-24.66687-13.91467-37.20825c-2.15381-6.34814-4.20935-12.72961-6.164-19.1416
	c-1.91956-6.29565-3.96564-12.6333-4.88898-19.1687c-1.4682-10.39087,0.62036-21.30432,6.88458-29.87549
	c5.86157-8.021,14.83947-13.20776,24.91467-12.9436c8.49054,0.22278,16.46741,4.16113,21.18817,11.19189
	c0.12848-0.14648,0.29871-0.26843,0.56018-0.31494c12.28796-2.18237,24.69342-3.54211,37.1349-4.47522
	c22.2785-1.67065,44.63641-1.82666,66.95337-2.6853c21.82703-0.83972,43.6441-2.45215,65.07672-6.84753
	c1.5672-4.23901,3.10638-8.48767,4.52161-12.77783c1.62616-4.92712,3.11133-9.89502,4.86047-14.7821
	c1.77319-4.95422,3.6778-9.8623,5.68585-14.72595c1.96613-4.76135,4.02069-9.48767,6.10577-14.198
	c0.75732-1.71033,1.50122-3.44006,2.25757-5.16577c-0.66638-0.24097-1.33228-0.48193-1.9986-0.72278
	c-0.47095-0.17041-1.16876-0.30078-1.64722-0.56018c-0.08093,0.17554-0.14642,0.31641-0.10498,0.2229
	c-1.03076,2.30139-2.04755,4.60925-3.06635,6.91602c-3.69678,8.36963-7.51947,16.6781-11.32019,24.9989
	c-3.79126,8.30042-7.22552,16.79749-11.36371,24.93042c-0.4129,0.81201-1.73962,0.23779-1.46216-0.61621
	c1.73914-5.35071,3.85217-10.53674,5.98724-15.73987c1.87463-4.56787,3.70428-9.177,5.41888-13.80762
	c1.68768-4.55823,3.65778-9.02124,5.53387-13.50464c1.91913-4.58618,3.92224-9.13635,5.92133-13.68811
	c0.84033-1.91345,1.58868-4.28711,4.13013-4.16248c1.21478,0.05957,2.43005,0.68506,3.56079,1.08862
	c0.72186,0.25757,1.44373,0.51501,2.16504,0.77258c0.64539-1.37207,1.30878-2.73315,2.02661-4.05945
	c3.00488-5.55017,9.16461-11.95862,16.20972-9.44031c8.27728,2.95886,4.28461,14.6001,2.30701,20.44092
	c-3.41083,10.07288-7.42401,19.99756-11.32568,29.88879c-2.8739,7.28479-5.55939,14.64734-8.22485,22.01453
	c4.4386-1.43909,8.81775-3.02917,13.14233-4.79175c3.94122-1.60596,9.47906-3.15942,12.51495,0.91333
	c1.31024,1.75806,1.81061,4.16565,2.466,6.22986c0.63287,1.99463,1.25177,3.99414,1.85461,5.99817
	c1.28278,4.26306,2.48547,8.55005,3.63025,12.85217c2.41803,9.08508,4.58411,18.23608,6.60767,27.41638
	c3.92322,17.79663,7.20605,35.73218,10.40039,53.67175C342.39423,1529.92578,341.88428,1531.0874,340.69305,1531.41772z
	 M286.67303,1386.62854c0.92383,0.30444,1.84113,0.63867,2.76349,0.92627c1.45667,0.4541,2.94135,0.79675,4.41559,1.1875
	c1.47217,0.3905,2.94489,0.79614,4.38757,1.28699c1.0033,0.34131,2.09607,0.70532,3.08838,1.19263
	c0.74536-2.11377,1.49072-4.22766,2.25757-6.33386c1.6936-4.65393,3.53674-9.28271,4.92999-14.03845
	c0.69983-2.38855,1.30072-4.83875,1.55914-7.31836c0.13947-1.33704,0.21246-2.7959-0.47937-3.99866
	c-1.02582-1.78296-3.08441-2.07703-5.04102-1.64612c-3.07837,0.67773-5.32489,2.86475-7.01953,5.43066
	c-2.40649,3.64355-4.0097,7.82019-5.79883,11.78552C290.01038,1378.92688,288.32269,1382.76953,286.67303,1386.62854z
	 M284.81042,1391.05664c1.28772,0.4707,2.48798,1.20386,3.74475,1.74817c1.36322,0.59033,2.76593,1.08716,4.16718,1.57788
	c2.2215,0.77808,4.44855,1.5459,6.5946,2.50769c0.33948-0.95654,0.67987-1.9126,1.01733-2.87
	c-1.0733-0.48254-2.13257-0.9823-3.26038-1.36499c-1.44666-0.49097-2.92139-0.87891-4.38458-1.31421
	c-1.50519-0.44824-3.00787-0.92944-4.47058-1.50378c-0.82233-0.32275-1.65717-0.69678-2.42603-1.16345
	C285.4588,1389.46558,285.13989,1390.26318,284.81042,1391.05664z M247.65448,1487.18994
	c0.09601,0.03735,0.17352,0.08923,0.25549,0.15173c2.79742,0.85327,5.55188,1.83313,8.2948,2.85071
	c1.48517,0.55103,2.96588,1.11511,4.44159,1.69226c0.71185,0.27856,1.42273,0.56018,2.13257,0.84473
	c0.32196,0.12915,0.64789,0.24658,0.96381,0.38074c0.73083-1.97217,1.46222-3.94434,2.19354-5.91675
	c7.20654-19.44128,14.3736-38.89783,21.69061-58.2981c3.67273-9.73865,7.21051-19.51965,10.73529-29.31152
	c0.0415-0.11462,0.08099-0.22998,0.1225-0.3446c-2.24805-1.05713-4.59509-1.88794-6.92114-2.76013
	c-1.44617-0.54248-2.88641-1.10876-4.28961-1.75696c-1.09979-0.50793-2.27203-1.06201-3.20135-1.86963
	c-1.34473,3.2854-2.66144,6.58203-3.9032,9.90759c-3.52576,9.43738-6.46265,19.07263-10.03992,28.49109
	C262.9989,1450.0238,255.86481,1468.8562,247.65448,1487.18994z M249.18018,1509.44995
	c2.20508-1.9834,4.36963-4.01147,6.42322-6.15088c1.34174-1.39819,2.65393-2.82495,3.93567-4.27832
	c0.91187-1.03418,1.78564-2.12939,2.68646-3.19275c-0.20795-0.09692-0.41589-0.19702-0.62933-0.29382
	c-0.69586-0.31628-1.39374-0.62952-2.09259-0.93994c-1.39673-0.62048-2.79944-1.22961-4.20715-1.82568
	c-2.15955-0.91418-4.33508-1.78918-6.5047-2.67957c0.09052,1.1665,0.03802,2.38403,0.07251,3.41199
	c0.07098,2.09583,0.12146,4.19031,0.15448,6.28699C249.0697,1502.95898,248.92273,1506.24731,249.18018,1509.44995z
	 M96.61279,1450.52942c1.71765,6.7345,3.2868,13.50647,4.62329,20.32849c2.62921,13.4198,5.33569,26.82642,8.11914,40.21497
	c1.37469,6.61304,2.7749,13.22083,4.20013,19.82324c0.73083,3.38367,1.46771,6.76599,2.21155,10.14685
	c0.38092,1.73169,0.76385,3.46301,1.14825,5.19385c0.14447,0.64954,0.29395,1.29993,0.43439,1.95117
	c3.5918-1.53381,7.22656-2.97461,10.91328-4.2688c-1.8111-6.8855-3.62476-13.77002-5.43189-20.65637
	c-1.63416-6.22742-3.23584-12.47363-4.3266-18.82312c-0.55688-3.23718-0.95831-6.5-1.57117-9.72766
	c-0.61487-3.23816-1.50323-6.40906-2.41504-9.57349c-1.78662-6.198-3.38226-12.42676-4.57703-18.76794
	c-0.60492-3.21057-1.17578-6.43579-1.54321-9.68298c-0.32343-2.86096-0.84833-5.88989-0.52789-8.77539
	c-3.68872,0.4021-7.37427,0.83911-11.05096,1.36108c0.00824,0.01501,0.01923,0.02771,0.02747,0.0426
	C97.11718,1449.81055,96.9417,1450.25964,96.61279,1450.52942z M233.10248,1557.09912
	c-0.20245-3.90356-0.61285-7.79419-0.75586-11.69983c-7.15955-0.06531-14.31708-0.31702-21.46063-0.80139
	c-8.33575-0.56494-16.59662-1.62329-24.88544-2.6344c-7.81586-0.95349-15.61127-1.64441-23.4892-1.19397
	c-15.50085,0.88647-30.61774,5.42896-44.7439,11.7124c-1.02979,0.45825-2.2265,0.31128-2.84491-0.74609
	c-0.02795-0.04797-0.02997-0.11182-0.05347-0.16309c-0.03699-0.04028-0.08002-0.0752-0.112-0.11987
	c-1.15302-0.74426-2.33405-1.4397-3.58679-1.97607c-0.16193,0.4834-0.34039,0.96118-0.53949,1.43506
	c-0.43115,1.026-1.03931,1.93787-1.72791,2.80664c-0.15582,0.19653-0.49359,0.20801-0.69586,0.08972
	c-0.22894-0.13391-0.31671-0.39722-0.26385-0.64844c0.20465-0.97351,0.40082-1.9552,0.68945-2.90857
	c0.14911-0.49219,0.29297-0.9873,0.43011-1.48413c-0.8725-0.19434-1.7655-0.2876-2.6626-0.30469
	c-0.56946,1.78564-1.18243,3.55396-1.8941,5.28967c-0.427,1.04138-0.87,2.07642-1.33057,3.10339
	c-0.23566,0.52551-0.74548,2.20398-1.59106,1.90161c-0.86572-0.30945-0.04944-1.73718,0.16687-2.24292
	c0.44812-1.04761,0.87524-2.10413,1.28467-3.16748c0.617-1.60229,1.20789-3.21631,1.771-4.83911
	c-0.84106,0.06445-1.67719,0.18652-2.49432,0.35156c-0.12445,0.02515-0.24744,0.05933-0.37164,0.08618
	c-0.00134,0.00537,0.00043,0.0094-0.00104,0.01465c-0.53491,1.94543-1.15137,3.85791-1.81042,5.76489
	c-0.33197,0.96045-0.67316,1.91797-1.02087,2.8728c-0.1745,0.47913-0.33844,0.96167-0.51013,1.44189
	c-0.15698,0.43872-0.29321,0.93176-0.66736,1.23022c-0.29779,0.23779-0.82544,0.20215-0.92053-0.24292
	c-0.19141-0.89575,0.43201-1.96875,0.70447-2.81323c0.31146-0.96533,0.61322-1.93372,0.90723-2.9043
	c0.49194-1.62463,0.96411-3.25513,1.44427-4.88318c-1.11896,0.32898-2.21521,0.73328-3.27411,1.21973
	c0.00928,0.07556,0.00256,0.15857-0.02533,0.24829c-0.68256,2.19348-1.32764,4.39832-1.9292,6.61536
	c-0.29279,1.07898-0.57562,2.16077-0.84821,3.24512c-0.26135,1.03943-0.37634,2.12085-1.07086,2.97144
	c-0.17688,0.21655-0.57007,0.09448-0.62677-0.16553c-0.2348-1.07556,0.18274-2.1123,0.45575-3.14832
	c0.28479-1.08118,0.5799-2.15955,0.88483-3.23499c0.55371-1.953,1.14655-3.89453,1.76379-5.82825
	c-1.00977,0.55432-1.97473,1.18542-2.87323,1.90759c-0.00769,0.04224-0.00018,0.07935-0.0155,0.12402
	c-0.76593,2.23145-1.53375,4.46143-2.33051,6.68213c-0.3988,1.11157-0.79327,2.21899-1.13885,3.34839
	c-0.17218,0.56274-0.35138,1.1239-0.51123,1.69019c-0.14099,0.49951-0.19409,0.99927-0.71423,1.23145
	c-0.25909,0.11572-0.56836,0.07715-0.7215-0.18921c-0.29602-0.51465-0.08722-0.89294,0.10614-1.40869
	c0.20709-0.55249,0.39728-1.11121,0.59326-1.66772c0.39197-1.11304,0.73151-2.23706,1.07007-3.36731
	c0.41437-1.38342,0.84998-2.75989,1.27991-4.13831c-2.41571,2.84583-3.95227,6.54199-3.84991,10.28772
	c0.10925,4.00366,2.3233,8.56824,5.8363,10.60925c0.23499,0.13672,0.0285,0.47168-0.20996,0.35913
	c-3.70026-1.74561-6.34271-4.61597-7.36749-8.62402c-1.98456-7.76221,2.63519-15.38855,9.15741-19.34338
	c3.46454-2.10071,7.51923-3.37244,11.56085-3.63733c2.90393-0.19055,5.48193,0.42346,7.94739,1.50195
	c-0.06195-0.32861-0.12195-0.65906-0.19147-0.97961c-0.3949-1.81555-0.78833-3.63123-1.17926-5.44751
	c-0.81781-3.79761-1.62762-7.59705-2.42847-11.39819c-2.82141-13.38635-5.5799-26.78979-8.14087-40.22864
	c-2.43677-12.78882-4.84497-25.573-6.27344-38.51648c-1.15527-1.76575-2.53302-3.29712-4.21216-4.58496
	c-6.76715-5.19006-16.29767-6.55652-24.37079-4.03552c-8.99469,2.80872-15.44836,10.91968-18.25177,19.66162
	c-1.47522,4.59937-2.04956,9.40796-1.69238,14.22522c0.47363,6.38965,2.41724,12.59705,4.24188,18.70361
	c3.67426,12.29712,7.71539,24.48462,12.11603,36.54102c4.39807,12.04895,9.11761,23.99695,14.27404,35.74255
	c1.94415,4.42822,4.19769,9.42676,8.33533,12.23828c4.65057,3.16003,10.46039,2.68323,15.66779,1.40454
	c11.70111-2.87329,22.50043-8.74829,33.49421-13.50513c11.19171-4.84229,22.79236-8.33923,34.83386-10.3186
	c12.15955-1.99854,24.54102-2.49878,36.76654-0.78931c9.32208,1.30359,19.78094,3.67261,26.49457,10.61792
	C233.13696,1563.09424,233.25897,1560.11646,233.10248,1557.09912z M337.66968,1527.7793
	c-1.55219-8.68872-3.13336-17.37231-4.80151-26.03931c-3.44135-17.88196-7.13159-35.74475-11.72064-53.37146
	c-1.06927-4.10803-2.19153-8.20239-3.38678-12.27563c-0.5719-1.94861-1.16125-3.8916-1.77917-5.82617
	c-0.32941-1.03174-0.66382-2.06201-1.00525-3.08972c-0.27246-0.81824-0.49994-1.76245-1.11182-2.40283
	c-1.12378-1.17542-3.10284-0.80237-4.49707-0.4447c-2.05811,0.52783-3.99817,1.44788-5.96228,2.23914
	c-4.29462,1.72961-8.65973,3.24609-13.08984,4.5907c-0.16095,0.04883-0.29791,0.02979-0.44592,0.04199
	c-0.42389,1.17212-0.84729,2.34497-1.27222,3.51636c-7.29401,20.09399-14.77399,40.12146-22.1825,60.17346
	c0.19495,0.43542,0.21545,0.9425-0.11993,1.44727c-1.13831,1.71362-2.66547,3.23914-4.04773,4.75903
	c-1.35321,1.48779-2.73889,2.94604-4.15613,4.37341c-2.88794,2.90955-5.87079,5.71838-8.98114,8.38989
	c-0.83386,0.71619-2.47754,0.58313-2.70648-0.71448c-0.74432-4.22119-0.52692-8.60376-0.5849-12.87476
	c-0.02844-2.09607-0.04895-4.19055-0.03998-6.28687c0.00702-1.76233-0.30243-4.04285,0.28497-5.7865
	c-0.01105-0.38342,0.14697-0.75952,0.45636-0.953c0.6994-2.31287,1.38727-4.62903,2.16956-6.91565
	c3.44482-10.06323,6.80212-20.15186,10.40839-30.15845c1.51923-4.21643,3.10089-8.41284,4.6731-12.61304
	c-11.13177,2.14502-22.37897,3.64551-33.67114,4.62781c-22.08551,1.92151-44.26453,2.10815-66.41248,2.62598
	c-18.10883,0.42346-36.24763,1.04895-54.26698,2.93738c0.54443,1.60046,0.75439,3.25049,1.04681,4.92688
	c0.3114,1.78381,0.67285,3.55737,0.99982,5.33789c0.64087,3.49292,1.28918,6.97852,2.06757,10.44434
	c1.4317,6.37305,3.20435,12.62927,4.93201,18.92444c1.70612,6.21606,2.36597,12.58118,3.58374,18.8938
	c1.23822,6.41833,2.92889,12.7373,4.58508,19.05713c1.53718,5.86621,3.07484,11.7323,4.61158,17.59827
	c11.31067-3.71875,23.01428-6.14807,34.98486-6.38831c8.12433-0.16309,16.18365,0.8844,24.22705,1.90515
	c8.12482,1.03088,16.24866,1.87085,24.42804,2.33362c16.02673,0.90662,32.12195,0.69336,48.13019-0.4696
	C288.18475,1538.48413,313.3031,1534.39697,337.66968,1527.7793z M193.87,1461.0127
	c7.3465,0.37415,14.71198,0.37842,22.05847,0.00806c4.16418-0.20996,8.32233-0.53955,12.46747-0.99023
	c4.0257-0.4375,8.35077-0.70715,12.21252-1.97839c1.28375-0.42273,1.11078-2.43201-0.32794-2.41943
	c-3.70728,0.0321-7.45746,0.83398-11.13873,1.25183c-3.64575,0.41394-7.302,0.73486-10.96375,0.96277
	c-7.42303,0.46204-14.86951,0.54285-22.30048,0.24158c-7.39349-0.29956-14.73401-0.96216-22.13849-0.50317
	c-7.45398,0.46191-14.88544,1.40283-22.31146,2.1814c-8.38977,0.87939-16.79059,1.67578-25.10438,3.12256
	c-0.87634,0.15259-0.66339,1.56189,0.20844,1.53967c15.10847-0.38367,30.11988-2.59509,45.18134-3.71985
	C179.13599,1460.15515,186.45447,1460.63489,193.87,1461.0127z M243.99377,1468.3833
	c-15.06293,0.66028-30.12439,1.77502-45.1698,2.75635c-15.02142,0.97986-30.0564,1.99316-45.03485,3.50977
	c-8.34326,0.84473-16.65759,1.72705-24.87543,3.43188c-0.75684,0.1571-0.59088,1.38599,0.18298,1.3512
	c7.495-0.33728,14.94342-1.06946,22.4209-1.66846c7.49347-0.60034,14.99097-1.14343,22.49347-1.60938
	c14.85846-0.92285,29.72992-1.63281,44.59589-2.41675c8.46124-0.44617,16.93555-0.81384,25.38684-1.41943
	C246.49426,1472.13928,246.54425,1468.27148,243.99377,1468.3833z M175.82416,1490.26904
	c12.71887-0.34229,25.45679-0.16614,38.16669-0.81042c7.13507-0.36169,14.27515-0.98254,21.35468-1.94604
	c2.44849-0.33325,1.4787-4.29797-1.04578-3.79468c-25.02893,4.99072-50.74915,2.86218-76.01349,5.56042
	c-7.01111,0.7489-13.97321,1.79468-20.8028,3.56982c-0.56689,0.14734-0.31995,0.96118,0.23846,0.86377
	C150.32483,1491.51562,163.04828,1490.61279,175.82416,1490.26904z M328.47156,1501.9165
	c-1.00482,0.20972-1.95563,0.66174-2.95593,0.91406c-1.0213,0.25757-2.06256,0.43188-3.10834,0.55151
	c-1.98114,0.22656-3.97772,0.29919-5.96582,0.43494c-4.44159,0.3031-8.85864,0.77966-13.26825,1.38818
	c-8.87573,1.22473-17.66589,3.02026-26.27069,5.51917c-0.99579,0.28918-0.57733,1.7489,0.42542,1.54248
	c8.92023-1.83618,17.90735-3.37561,26.96252-4.36719c4.45258-0.48755,8.92316-0.87061,13.39429-1.14404
	c2.00909-0.12305,4.01917-0.22681,6.01373-0.50745c1.90662-0.26819,4.27063-0.5918,5.85785-1.75879
	C330.82208,1503.55884,330.10022,1501.57666,328.47156,1501.9165z M282.64886,1499.46362
	c5.47192-0.40747,10.91876-0.96338,16.37518-1.54102c2.68896-0.28467,5.37537-0.59888,8.06183-0.9032
	c2.69696-0.30554,5.5744-0.39709,8.20532-1.07422c1.62622-0.41846,1.28577-2.93115-0.39539-2.92224
	c-2.63147,0.01379-5.35492,0.63733-7.9574,1.0155c-2.75891,0.40112-5.51984,0.79175-8.27582,1.21289
	c-5.42188,0.82874-10.8288,1.67566-16.22266,2.67261C281.57812,1498.0835,281.76703,1499.5293,282.64886,1499.46362z
	 M237.89899,1510.4314c-3.50977,1.78198-7.66895,2.4436-11.57263,2.60254c-1.99762,0.0813-4.00519,0.00818-5.98926-0.23657
	c-1.9541-0.24097-3.88776-0.69385-5.86035-0.77124c-2.01605-0.07886-3.81567,0.38647-5.66382,1.15503
	c-1.53217,0.63757-3.19135,1.37988-4.70502,0.31323c-1.30273-0.91748-2.11707-2.4707-2.82593-3.85596
	c-0.69836-1.36475-1.54822-2.85059-3.32886-2.5907c-1.59314,0.23242-3.06335,1.82275-4.17462,2.89478
	c-1.25928,1.21423-2.39301,2.54919-3.42981,3.95691c-0.47491,0.64502-0.92682,1.80627-1.57367,2.26978
	c-0.4364,0.3125-0.72687-0.23584-1.08276-0.69897c-0.83838-1.09082-1.47675-2.323-2.64447-3.11523
	c-2.56-1.73633-5.82483-0.56934-8.0589,1.14136c-2.56995,1.96826-4.00964,4.95776-6.23468,7.25671
	c-1.07928,1.11487-2.57599,2.31335-4.23566,2.1012c-2.28357-0.29199-2.21307-2.94385-2.27905-4.71973
	c-0.18298-4.91321-0.36993-9.82642-0.54041-14.73999c-0.03998-1.15527-1.32471-1.58667-2.15656-0.89331
	c-10.19592,8.49646-18.60419,19.00098-25.01691,30.60303c-0.77783,1.40649,1.37573,2.66626,2.1546,1.2594
	c5.88428-10.62598,13.46472-20.23975,22.57837-28.26404c0.12,3.67261,0.23499,7.34558,0.35193,11.01831
	c0.10602,3.34058,0.22748,7.65649,4.38361,8.29822c3.41382,0.52698,6.13226-2.06421,8.06537-4.53674
	c1.9751-2.526,3.82074-5.97632,7.20404-6.77087c3.57025-0.83826,3.66022,3.57068,6.39221,4.59961
	c1.52618,0.57483,2.76044-0.37073,3.61072-1.5752c1.13379-1.60596,2.27258-3.14624,3.66229-4.54626
	c0.64288-0.64709,1.31671-1.26147,2.0166-1.84607c0.28094-0.2345,0.8183-0.86462,1.19873-0.89844
	c0.065-0.00574,0.10199-0.01099,0.14795-0.01648c0.151,0.09277,0.29095,0.53418,0.37042,0.68787
	c0.77386,1.49963,1.56073,2.99402,2.72644,4.2356c1.08282,1.1532,2.50403,1.98254,4.10571,2.07996
	c2.05157,0.12488,3.81317-0.98999,5.69183-1.60693c2.34198-0.7688,4.78748-0.30884,7.15503,0.08667
	c2.26202,0.37793,4.53558,0.62671,6.83112,0.6377c4.85449,0.02344,9.40955-1.1145,14.07013-2.32812
	C241.62323,1512.99841,240.22803,1509.24902,237.89899,1510.4314z M84.10986,1444.49023
	c0.18042-0.46753-0.50793-0.67932-0.76038-0.32043c-0.88879,1.26233-1.45618,2.76465-2.11505,4.15784
	c-0.66534,1.40735-1.36426,2.79773-2.05859,4.1908c-0.09125,0.18286,0.17297,0.34192,0.27618,0.1615
	c0.78461-1.37134,1.56494-2.74414,2.37805-4.09875C82.62963,1447.24927,83.5487,1445.94238,84.10986,1444.49023z
	 M84.96069,1454.86487c0.63062-1.08105,1.31171-2.12695,1.80609-3.27881c0.27795-0.64783-0.48438-1.41626-1.0553-0.81409
	c-1.68262,1.77454-2.76892,4.177-3.79669,6.37256c-1.05231,2.24817-1.9856,4.5697-2.37,7.0271
	c-0.05701,0.36401,0.44141,0.65332,0.64337,0.27124c1.12201-2.1228,2.02783-4.34412,3.10333-6.49365
	C83.81487,1456.90356,84.37151,1455.87476,84.96069,1454.86487z M87.17571,1460.99292
	c0.64539-1.15808,1.52368-2.30811,1.60516-3.66052c0.03424-0.56506-0.63086-0.87012-1.08301-0.62158
	c-1.18127,0.64954-1.79089,2.03394-2.37079,3.20166c-0.61237,1.23218-1.16675,2.4939-1.66937,3.7749
	c-1.00458,2.56006-1.76019,5.20898-2.27954,7.90881c-0.18848,0.979,1.27197,1.40771,1.51166,0.41663
	c0.62714-2.5918,1.46698-5.13611,2.55725-7.57104C85.97271,1463.2677,86.54961,1462.11658,87.17571,1460.99292z M87.2337,1475.51514
	c0.57239-1.29736,1.19476-2.56958,1.81366-3.84509c0.64484-1.32922,1.50769-2.65527,1.88531-4.08569
	c0.20923-0.79224-0.85803-1.5166-1.44391-0.84045c-0.97534,1.12585-1.53223,2.58252-2.13361,3.93713
	c-0.60834,1.37085-1.14227,2.77869-1.64917,4.19006c-1.03229,2.87561-1.9071,5.77295-2.58246,8.75391
	c-0.14545,0.64307,0.78607,0.90063,0.9873,0.27209C85.01763,1481.06519,86.03295,1478.23657,87.2337,1475.51514z
	 M86.7553,1489.90759c-0.13196,0.81421,1.05029,1.18408,1.26501,0.34863c0.53711-2.0896,1.32196-4.06421,2.29352-5.98755
	c0.96527-1.91089,2.2818-3.62378,3.06012-5.62439c0.19293-0.49597-0.48639-1.00854-0.91632-0.70459
	c-1.87012,1.32275-2.93365,3.40796-3.82874,5.45874C87.72363,1485.4718,87.11724,1487.67676,86.7553,1489.90759z
	 M88.27197,1499.09497c-0.10895,0.60437,0.72363,0.8457,0.9256,0.25513c0.80908-2.36523,1.82635-4.68787,2.9776-6.90662
	c0.56543-1.0896,1.18079-2.15295,1.84418-3.18579c0.67285-1.04736,1.34619-2.11963,1.64813-3.34558
	c0.12549-0.50854-0.44092-1.00488-0.91632-0.70459c-2.16107,1.36499-3.26031,4.14343-4.23865,6.40137
	C89.46374,1494.02905,88.73992,1496.49878,88.27197,1499.09497z M94.07482,1498.00256
	c-0.36945,0.52002-0.74036,1.00525-1.02856,1.57629c-0.55389,1.0968-1.06702,2.21606-1.52692,3.35547
	c-0.92261,2.28503-1.63867,4.65063-2.17456,7.05505c-0.21899,0.98218,1.22101,1.38782,1.51166,0.41687
	c0.68488-2.28833,1.54071-4.51306,2.58002-6.6637c0.51062-1.05701,1.04578-2.10034,1.62915-3.11938
	c0.29572-0.51697,0.50012-1.06335,0.75934-1.59753c0.27393-0.56396,0.58691-1.09326,0.72888-1.70776
	c0.18494-0.79932-0.69788-1.20483-1.28326-0.74707C94.77343,1496.95972,94.43822,1497.49097,94.07482,1498.00256z
	 M96.04638,1506.94849c-1.69861,1.30859-2.39673,3.50378-3.12787,5.44849c-0.74481,1.98096-1.19299,4.0625-1.35071,6.16724
	c-0.01947,0.26086,0.39642,0.3822,0.5069,0.13721c0.8396-1.86609,1.65491-3.74097,2.46625-5.62036
	c0.80463-1.86377,2.04034-3.65723,2.25183-5.70435C96.82897,1507.0249,96.33434,1506.72681,96.04638,1506.94849z
	 M95.75695,1518.10486c-0.52936,1.19519-1.00128,2.43213-1.37622,3.68469c-0.73108,2.44165-1.15753,5.01379-1.159,7.56128
	c-0.00024,0.64502,0.96454,0.78784,1.13129,0.15308c0.62213-2.36926,1.31995-4.70776,2.24078-6.97961
	c0.44342-1.09485,0.93152-2.15894,1.4632-3.21399c0.27094-0.53809,0.51337-1.09033,0.78534-1.62842
	c0.15149-0.30029,0.36841-0.61426,0.45837-0.93994c0.08301-0.302,0.03979-0.64648,0.03949-0.9563
	c-0.00098-0.67981-0.74335-1.0791-1.32397-0.75964c-0.26868,0.14783-0.5816,0.28235-0.80109,0.50183
	c-0.2384,0.23828-0.39539,0.58496-0.56238,0.87439C96.33233,1516.95801,96.0169,1517.51807,95.75695,1518.10486z
	 M97.71258,1530.45422c-0.47339,2.27576-0.88483,4.68372-0.47839,6.99658c0.04297,0.24646,0.39789,0.20935,0.4624,0
	c0.66534-2.15173,0.96301-4.39624,1.62213-6.55383c0.32568-1.06677,0.6684-2.12793,1.06958-3.16907
	c0.19769-0.51343,0.48309-1.02722,0.56708-1.57263c0.08978-0.58423,0.24396-1.15735,0.32794-1.74207
	c0.06152-0.42664-0.44342-0.86194-0.80182-0.46692c-0.79236,0.8728-1.3847,1.84229-1.76562,2.9502
	C98.31542,1528.06152,97.96349,1529.24768,97.71258,1530.45422z M99.03881,1543.09497
	c-0.16675,0.97559,1.24072,1.40894,1.51166,0.41675c0.52539-1.92236,1.23126-3.7627,2.00659-5.59595
	c0.37445-0.88574,0.78937-1.75562,1.23529-2.60767c0.09198-0.17456,0.19543-0.34534,0.27991-0.52319
	c0.13501-0.28479,0.13947-0.54053,0.20795-0.84167c0.11401-0.49817,0.32294-0.97034,0.43542-1.46985
	c0.12695-0.56287-0.51288-0.90845-0.93579-0.54468c-0.39142,0.33691-0.68939,0.74609-1.04932,1.1123
	c-0.20392,0.20703-0.43042,0.36426-0.59088,0.61414c-0.13947,0.21716-0.2384,0.47815-0.34991,0.71082
	c-0.4389,0.91724-0.84106,1.85327-1.2085,2.80127C99.84515,1539.06616,99.38146,1541.09155,99.03881,1543.09497z
	 M288.03625,1460.23169c-1.25574-3.42627,0.38043-6.94128,3.25836-8.89014c0.03302-0.09058,0.04999-0.18225,0.11145-0.27026
	c2.45355-3.53149,7.3645-3.08813,10.68835-1.13586c3.2843,1.92883,5.34491,5.90613,4.18164,9.68481
	c-1.13678,3.69409-4.88403,5.79858-8.59125,5.87976C293.93805,1465.58215,289.42548,1464.02258,288.03625,1460.23169z
	 M301.49805,1457.43799c-0.16699,1.0155-0.32043,2.03174-0.43793,3.05432c-0.04999,0.43921-0.09747,0.87854-0.14246,1.31824
	c-0.026,0.25391-0.04303,0.51501-0.08801,0.76697c1.90912-0.90088,3.42584-2.59277,3.53882-4.81018
	c0.09344-1.84351-0.70837-3.58472-1.9986-4.84497C302.05591,1454.42322,301.74701,1455.9248,301.49805,1457.43799z
	 M293.31323,1452.82483c-0.36194,1.07666-0.73737,2.14893-1.05432,3.24011c-0.24744,0.85083-0.48389,1.70593-0.69684,2.56616
	c-0.10248,0.41565-0.19348,0.83411-0.28345,1.25281c-0.08447,0.3938-0.11249,0.74585-0.38043,1.05823
	c1.23578,1.36621,3.27032,2.11182,5.26294,2.31445c-0.03998-0.34875-0.00598-0.68457,0.04596-1.04773
	c0.07404-0.52002,0.13898-1.04126,0.20996-1.56177c0.133-0.96729,0.28094-1.93237,0.44446-2.89502
	c0.3399-1.99951,0.75031-3.98633,1.22174-5.95886c0.11743-0.49133,0.87183-0.28198,0.7558,0.2085
	c-0.45691,1.93787-0.85431,3.88916-1.18475,5.85278c-0.17444,1.03845-0.33191,2.07996-0.46936,3.12402
	c-0.09802,0.74573-0.0675,1.61804-0.32996,2.33972c0.75684,0.02991,1.4892-0.01599,2.14404-0.13916
	c0.30145-0.05652,0.59943-0.13843,0.89386-0.23218c-0.13452-0.40466-0.008-0.84961,0.0495-1.26831
	c0.06995-0.51074,0.14343-1.02112,0.22095-1.53076c0.14392-0.94824,0.27942-1.89783,0.43091-2.84497
	c0.27094-1.69739,0.60236-3.38428,0.95331-5.06714c-0.5224-0.37329-1.09131-0.68457-1.70117-0.89734
	c-1.09778-0.38269-2.29956-0.52869-3.41882-0.34082c0.05701,0.07068,0.08801,0.1604,0.0495,0.27673
	c-0.53888,1.63672-1.01978,3.29163-1.43671,4.96362c-0.20496,0.8208-0.39441,1.64551-0.56885,2.47351
	c-0.09052,0.42969-0.17596,0.85986-0.25146,1.29248c-0.0705,0.40344-0.10101,0.81482-0.27094,1.18921
	c-0.164,0.36133-0.66339,0.14172-0.68536-0.18567c-0.02802-0.4054,0.10944-0.81775,0.19592-1.21313
	c0.09302-0.42822,0.185-0.85681,0.28046-1.28455c0.18347-0.82568,0.38245-1.64771,0.59589-2.46594
	c0.43091-1.64893,0.92682-3.27966,1.47668-4.8927c-0.88531,0.25928-1.69617,0.74243-2.32153,1.52905
	C293.43817,1452.74695,293.37219,1452.77502,293.31323,1452.82483z M290.23981,1459.99548
	c0.03949-0.15283,0.08301-0.30518,0.12299-0.45911c0.10748-0.41406,0.2215-0.82629,0.32843-1.24048
	c0.21399-0.82874,0.44196-1.65369,0.68439-2.47449c0.27692-0.9397,0.61938-1.85803,0.93732-2.78479
	c-0.12402-0.03467-0.23895-0.08752-0.35248-0.15442C290.01038,1454.66455,288.9491,1457.59387,290.23981,1459.99548z" class="svg-style-0"/></svg>