<svg version="1.1" id="Layer_1" xmlns="http://www.w3.org/2000/svg" xmlns:xlink="http://www.w3.org/1999/xlink" x="0px" y="0px" viewBox="416.51065 1210.74585 250 247.47473" style="enable-background:new 416.51065 1210.74585 250 247.47473;" xml:space="preserve"><defs><style> .svg-style-0 {  fill: rgb(0, 0, 0); }</style></defs><path id="path-01_00000021814110775407910520000010417207623098472096_" d="M665.7049,1305.69666l-63.08197-78.28625
	c-0.60559-0.75134-1.48499-1.23254-2.44495-1.33447c-0.96472-0.10193-1.9223,0.18018-2.67487,0.78455l-13.83899,11.15149
	l-36.54291-26.4115c-0.78101-0.56409-1.75403-0.80347-2.71045-0.64233c-0.95404,0.15173-1.80737,0.67798-2.37268,1.46008
	l-10.41107,14.40503l-42.21191-15.84607c-0.90546-0.33667-1.9057-0.30579-2.7851,0.09241
	c-0.87939,0.40051-1.56439,1.13293-1.90335,2.03601l-33.23975,88.54724h-17.70862c-9.52151,0-17.26764,7.74622-17.26764,17.2677
	V1440.953c0,9.52148,7.74612,17.26758,17.26764,17.26758H588.8515c9.52148,0,17.26764-7.74609,17.26764-17.26758v-27.49792h6.59772
	c4.948,0,8.97394-4.02478,8.97394-8.97388v-34.98328c0-0.25171-0.02563-0.49744-0.07422-0.73474
	c-0.38708-5.9668-5.31378-10.71619-11.37671-10.71619h-3.70093l58.61481-47.23059c0.75262-0.60669,1.2326-1.48608,1.33569-2.44604
	C666.59375,1307.41028,666.31049,1306.448,665.7049,1305.69666z M568.15405,1393.56116
	c0,10.96985,8.92419,19.89392,19.89392,19.89392h10.78961v27.49792c0,5.5061-4.47986,9.98596-9.98608,9.98596H433.77829
	c-5.50623,0-9.98608-4.47986-9.98608-9.98596v-107.93628c2.91666,2.05969,6.3761,3.17139,9.98608,3.17139H588.8515
	c5.50177,0,9.9776,4.47327,9.98474,9.97314c0,0.00366-0.00104,0.00696-0.00104,0.01062v27.49536h-10.78723
	C577.07825,1373.66724,568.15405,1382.59143,568.15405,1393.56116z M586.15881,1266.97302
	c2.60852,2.1333,5.77997,3.47009,9.20862,3.83752c3.42157,0.36975,6.80988-0.26074,9.81189-1.79199l20.4118,25.33386
	c-2.13208,2.6073-3.46777,5.77869-3.8363,9.20618c-0.36859,3.42749,0.2619,6.81226,1.79193,9.81299l-23.95709,19.30408
	c-2.95099-2.35242-6.67963-3.76904-10.73816-3.76904h-6.20721c0.20697-5.76123-1.55389-11.61804-5.44635-16.44995
	c-8.58997-10.65686-24.24817-12.34448-34.90857-3.75452c-6.31433,5.0896-9.44995,12.66125-9.19397,20.20447h-23.79364
	L586.15881,1266.97302z M476.92542,1302.50977l18.42966-49.09485c3.33383,0.51672,6.74231,0.0498,9.87939-1.37708
	c3.13828-1.427,5.73138-3.68823,7.53757-6.53259l4.21027,1.58069L476.92542,1302.50977z M571.5282,1317.02661
	c2.80817,3.4856,4.04309,7.72644,3.8338,11.88h-34.99139c-0.26282-5.41504,1.95398-10.88013,6.48749-14.53467
	C554.39209,1308.30151,565.45782,1309.48914,571.5282,1317.02661z M560.54895,1251.0636l3.64716,2.63562l-53.24463,42.90466
	l30.71802-42.50159C547.98401,1256.89453,555.4303,1255.69751,560.54895,1251.0636z M570.07428,1248.96265l-7.90283-5.71155
	c-1.63318-1.18274-3.90747-0.81067-5.08313,0.81775c-3.31366,4.58655-9.73956,5.62-14.32727,2.30627
	c-1.63196-1.18274-3.90625-0.81067-5.08313,0.81775l-48.24207,66.74829l-18.57202,14.96545h-4.03159l78.97464-109.27075
	l31.97949,23.11243L570.07428,1248.96265z M521.40405,1240.96802l-9.1286-3.427c-0.90546-0.33887-1.90573-0.30579-2.7851,0.09253
	c-0.87939,0.40051-1.56439,1.13293-1.90335,2.03601c-0.96353,2.56702-2.86807,4.60547-5.36398,5.73853
	c-2.49594,1.13293-5.28342,1.22778-7.84924,0.26306c-0.90546-0.33655-1.90573-0.30579-2.7851,0.09253
	c-0.87939,0.40051-1.56442,1.13293-1.90335,2.03601l-28.94357,77.10193l-2.89444,4.005h-8.81305l41.2294-109.83252
	l36.94153,13.86743L521.40405,1240.96802z M606.11914,1349.03467v-2.86047c0-2.83447-0.69928-5.50415-1.91461-7.86646
	l26.4519-21.31433c1.56561-1.26099,1.81329-3.55298,0.55109-5.11975c-1.7196-2.1333-2.50537-4.81177-2.21265-7.53528
	c0.29272-2.72583,1.62958-5.17432,3.76404-6.89282c0.75256-0.60437,1.23254-1.48608,1.33563-2.44604
	c0.10431-0.96008-0.17896-1.92004-0.78455-2.67371l-24.50891-30.41809c-0.60559-0.75134-1.48499-1.23254-2.44611-1.33447
	c-0.95526-0.10669-1.92114,0.18018-2.67371,0.78455c-2.13446,1.72083-4.81171,2.50537-7.53638,2.21387
	c-2.72467-0.29395-5.17316-1.63074-6.89282-3.76636c-0.60559-0.75146-1.48499-1.23254-2.44495-1.33447
	c-0.96588-0.10193-1.9223,0.18005-2.67487,0.78455l-86.43683,69.65125h-15.2262l116.7677-94.09143l58.51318,72.61646
	L606.11914,1349.03467z M433.77829,1308.93445h14.97522l-7.49634,19.96973h-7.47888c-2.65237,0-5.17081-1.04285-7.05283-2.89172
	c-1.89151-1.92236-2.93326-4.44189-2.93326-7.09192C423.79221,1313.41431,428.27206,1308.93445,433.77829,1308.93445z
	 M612.71686,1406.17358h-10.23865h-14.43024c-6.95447,0-12.61237-5.65796-12.61237-12.61243s5.6579-12.6123,12.61237-12.6123
	h22.19189c1.47437,0,2.87384-0.30334,4.16937-0.81299v24.34534C614.40924,1405.41504,613.64954,1406.17358,612.71686,1406.17358z
	 M614.40924,1369.49792c0,2.29919-1.87018,4.16931-4.16937,4.16931h-4.12073v-8.33862h4.12073
	C612.53906,1365.32861,614.40924,1367.19873,614.40924,1369.49792z M595.45172,1393.35498
	c0,3.97546-3.22272,7.19812-7.19812,7.19812c-3.97546,0-7.19818-3.22266-7.19818-7.19812s3.22272-7.19812,7.19818-7.19812
	C592.229,1386.15686,595.45172,1389.37952,595.45172,1393.35498z" class="svg-style-0"/></svg>